<?xml version="1.0" encoding="UTF-8" standalone="no"?>
<!-- Created with Inkscape (http://www.inkscape.org/) -->

<svg
   version="1.1"
   id="svg1"
   width="2675.6768"
   height="571.81622"
   viewBox="0 0 2675.6768 571.81622"
   sodipodi:docname="bookmark_trnsparent.svg"
   inkscape:version="1.3.2 (091e20e, 2023-11-25)"
   xmlns:inkscape="http://www.inkscape.org/namespaces/inkscape"
   xmlns:sodipodi="http://sodipodi.sourceforge.net/DTD/sodipodi-0.dtd"
   xmlns="http://www.w3.org/2000/svg"
   xmlns:svg="http://www.w3.org/2000/svg">
  <defs
     id="defs1" />
  <sodipodi:namedview
     id="namedview1"
     pagecolor="#ffffff"
     bordercolor="#000000"
     borderopacity="0.25"
     inkscape:showpageshadow="2"
     inkscape:pageopacity="0.0"
     inkscape:pagecheckerboard="0"
     inkscape:deskcolor="#d1d1d1"
     inkscape:zoom="0.14806637"
     inkscape:cx="881.36149"
     inkscape:cy="489.64527"
     inkscape:window-width="1472"
     inkscape:window-height="820"
     inkscape:window-x="0"
     inkscape:window-y="37"
     inkscape:window-maximized="0"
     inkscape:current-layer="g1" />
  <g
     inkscape:groupmode="layer"
     inkscape:label="Image"
     id="g1"
     transform="translate(-208.21655,-218.8329)">
    <g
       id="g3"
       transform="matrix(1.3236486,0,0,1.3236486,14.302357,-164.36337)"
       style="clip-rule:evenodd;fill:#168347;fill-opacity:1;fill-rule:evenodd;image-rendering:optimizeQuality;shape-rendering:geometricPrecision;text-rendering:geometricPrecision">
      <path
         id="path3"
         style="opacity:1;fill:#168347;fill-opacity:1"
         d="m 812.26953,326.73438 c -3.15337,0.0731 -6.07628,1.16187 -8.76953,3.26562 -15.86198,14.53299 -32.86202,27.53301 -51,39 -11.27599,6.19599 -23.27601,8.196 -36,6 -3.195,2.756 -6.528,5.256 -10,7.5 -4.667,-2.333 -9.333,-4.667 -14,-7 -6.68399,3.509 -13.68401,6.176 -21,8 -7.89499,-2.533 -15.72801,-5.2 -23.5,-8 -5.64799,1.157 -10.98101,3.157 -16,6 -5.08999,-2.794 -9.923,-5.96 -14.5,-9.5 -1.667,-0.667 -3.333,-0.667 -5,0 -4.443,1.972 -8.943,3.805 -13.5,5.5 -4.49,-2.484 -8.99,-4.984 -13.5,-7.5 -1.333,-0.167 -2.667,-0.333 -4,-0.5 -5.51899,1.423 -10.85201,3.423 -16,6 -4.174,-2.588 -8.507,-4.921 -13,-7 -6.46899,2.901 -13.13601,5.235 -20,7 -6.64199,-1.387 -13.30901,-2.22 -20,-2.5 -11.59199,9.52499 -24.92502,13.525 -40,12 -4.976,4.487 -10.30901,8.487 -16,12 -7.18899,1.943 -14.52201,2.943 -22,3 -2.542,4.251 -5.209,8.418 -8,12.5 -6.27899,1.689 -12.61201,3.189 -19,4.5 -3.054,4.618 -6.22,9.118 -9.5,13.5 -5.17099,0.76 -10.33801,1.593 -15.5,2.5 -4.728,3.726 -9.72801,7.059 -15,10 -13.37199,6.07199 -26.70601,12.07201 -40,18 -13.59499,2.142 -27.26201,2.808 -41,2 -12.38199,-1.51 -24.71501,-3.343 -37,-5.5 -13.25399,2.063 -26.25401,5.23 -39,9.5 -8.21299,2.214 -16.54601,2.881 -25,2 -7.74999,-3.146 -15.75001,-4.813 -24,-5 -4.935,2.606 -9.602,5.606 -14,9 -0.608,1.231 -0.941,2.564 -1,4 2.63,8.42999 5.963,16.59701 10,24.5 2.772,-3.543 4.439,-7.543 5,-12 10.35399,2.005 20.68701,4.171 31,6.5 2.56,2.971 5.227,5.804 8,8.5 1.407,-3.221 2.407,-6.555 3,-10 13.95499,1.827 27.95501,3.327 42,4.5 2.394,8.07299 4.56,16.24001 6.5,24.5 3.166,-7.32699 6.333,-14.66101 9.5,-22 12.75999,5.19799 25.76001,9.698 39,13.5 18.40498,2.843 36.73902,6.01 55,9.5 1.422,0.209 2.755,0.709 4,1.5 -9.66099,0.5 -19.32801,0.666 -29,0.5 -6.69599,-0.109 -13.36301,0.224 -20,1 -1.542,8.16699 -3.709,16.16701 -6.5,24 -1.793,2.795 -3.96,5.295 -6.5,7.5 -9.50999,5.25499 -19.17601,10.255 -29,15 -4.357,-0.175 -8.691,-0.508 -13,-1 l -6,9 c -2.667,0.333 -5.333,0.667 -8,1 -2.741,5.21199 -4.907,10.71201 -6.5,16.5 -4.015,-4.182 -8.182,-8.182 -12.5,-12 -0.684,6.55499 -1.351,13.05501 -2,19.5 -11.00099,5.51299 -22.33501,9.846 -34,13 7.12699,-5.45899 13.96101,-11.29201 20.5,-17.5 7.63499,-16.60698 16.30201,-32.60702 26,-48 4.083,-10.56399 2.91699,-20.06401 -3.5,-28.5 -17.70798,23.73298 -36.37502,46.73302 -56,69 -2.438,0.682 -4.605,0.182 -6.5,-1.5 -1.261,0.259 -2.261,0.926 -3,2 -5.16399,9.66599 -10.83101,19.00001 -17,28 -0.667,3.333 -0.667,6.667 0,10 2.797,3.799 5.964,7.299 9.5,10.5 13.06499,3.244 26.06501,2.911 39,-1 14.67799,-5.17199 29.01101,-11.17201 43,-18 20.95298,-6.82099 41.95302,-13.48801 63,-20 9.83099,-2.962 19.83101,-4.628 30,-5 -13.96899,6.98399 -27.96901,13.98401 -42,21 7.11999,2.292 14.45301,3.959 22,5 20.96298,2.681 41.96302,3.014 63,1 16.24198,-3.811 32.57502,-7.144 49,-10 14.04599,-0.163 28.04601,0.671 42,2.5 3.326,-0.547 6.66,-1.047 10,-1.5 7.33299,-2.667 14.66701,-5.333 22,-8 5.61899,-1.299 11.28601,-1.632 17,-1 -7.33299,4.333 -14.66701,8.667 -22,13 -8.53599,7.92399 -13.036,17.75701 -13.5,29.5 -0.026,9.69499 -0.192,19.36201 -0.5,29 -4.119,1.559 -8.119,3.393 -12,5.5 -1.89,1.078 -2.89,2.745 -3,5 0.773,4.927 1.94,9.76 3.5,14.5 7.58999,-5.54499 15.09001,-11.21201 22.5,-17 0.333,0.833 0.667,1.667 1,2.5 -3.138,10.18399 -3.304,20.35101 -0.5,30.5 5.39099,-7.05899 10.391,-14.39301 15,-22 4.035,6.39299 7.702,13.06001 11,20 0.689,0.857 1.522,1.523 2.5,2 3.755,-6.50899 7.255,-13.17601 10.5,-20 0.725,-0.559 1.558,-0.892 2.5,-1 10.21699,3.905 20.38401,7.905 30.5,12 0.667,-1 0.667,-2 0,-3 -8.16699,-8.83299 -16.33301,-17.66701 -24.5,-26.5 8.63499,-6.57799 16.80201,-13.74501 24.5,-21.5 10.69599,-12.75599 15.363,-27.42202 14,-44 -6.18899,-26.18297 -21.68902,-44.35001 -46.5,-54.5 -9.73099,-0.915 -19.39801,-2.248 -29,-4 -5.53299,-2.934 -10.533,-6.6 -15,-11 13.76499,1.015 27.43101,3.015 41,6 9.55799,2.278 18.55801,5.94501 27,11 11.76099,9.42699 21.76101,20.42701 30,33 14.05999,-2.625 28.06001,-5.791 42,-9.5 2.952,-7.90499 6.452,-15.57201 10.5,-23 6.68999,-5.42899 14.19001,-9.429 22.5,-12 0.333,-0.833 0.667,-1.667 1,-2.5 -5.93699,-19.04098 -11.43701,-38.20802 -16.5,-57.5 -1.51,-12.29499 -1.843,-24.62801 -1,-37 1.516,-13.23599 8.68201,-21.402 21.5,-24.5 21.66298,-2.336 39.33001,4.99702 53,22 -8.77599,-3.877 -17.77601,-7.544 -27,-11 -18.06598,-4.883 -30.56601,1.28302 -37.5,18.5 -0.71,8.43799 -0.043,16.77101 2,25 6.13099,21.39298 12.46401,42.72602 19,64 l 3,6 c 7.69799,7.75499 15.86501,14.92201 24.5,21.5 -14.22399,-4.289 -28.72401,-7.789 -43.5,-10.5 -9.06199,0.403 -15.395,4.73601 -19,13 -2.202,12.24499 -3.202,24.57901 -3,37 3.754,-5.84199 7.754,-11.50901 12,-17 22.18998,-22.67098 24.52298,-21.33697 7,4 -3.335,6.65699 -5.002,13.65701 -5,21 11.43999,-10.48199 23.60701,-19.64801 36.5,-27.5 -5.19299,8.91299 -8.36,18.41301 -9.5,28.5 15.86598,-10.85999 30.86601,-22.86001 45,-36 3.099,-4.625 5.432,-9.62501 7,-15 2.333,-9.33299 4.667,-18.66701 7,-28 1.897,-10.01899 1.897,-20.01901 0,-30 -3.406,-6.81199 -6.739,-13.47901 -10,-20 3.035,3.37 6.368,6.37 10,9 3.082,3.159 5.416,6.825 7,11 1.24,7.77899 2.574,15.44601 4,23 5.37699,-5.70799 10.377,-11.70801 15,-18 15.61098,-14.78799 30.94402,-29.78802 46,-45 20.77098,-26.65597 30.104,-56.99003 28,-91 3.076,-9.55899 6.742,-18.89301 11,-28 0.667,-5.66699 0.667,-11.33301 0,-17 -9.81699,-5.49099 -19.98401,-10.325 -30.5,-14.5 -1.10225,-0.20125 -2.17934,-0.29 -3.23047,-0.26562 z M 294.5,475.5 c 7.98799,1.162 15.32201,3.996 22,8.5 -7.80399,1.875 -15.63801,3.375 -23.5,4.5 -2.896,-3.274 -3.229,-6.941 -1,-11 0.995,-0.566 1.828,-1.233 2.5,-2 z" />
      <path
         style="clip-rule:evenodd;opacity:1;fill:#168347;fill-opacity:1;fill-rule:evenodd;image-rendering:optimizeQuality;shape-rendering:geometricPrecision;text-rendering:geometricPrecision"
         fill="#ecddaa"
         d="m 465.5,357.5 c 8.007,-0.166 16.007,0 24,0.5 4.835,0.542 9.501,1.709 14,3.5 -2.61,4.609 -5.61,8.942 -9,13 -10.317,0.832 -20.651,1.332 -31,1.5 -3.492,4.485 -7.325,8.651 -11.5,12.5 -15.047,1.692 -28.047,7.692 -39,18 7.325,-27.156 24.825,-43.489 52.5,-49 z"
         id="path4" />
      <path
         style="clip-rule:evenodd;opacity:1;fill:#168347;fill-opacity:1;fill-rule:evenodd;image-rendering:optimizeQuality;shape-rendering:geometricPrecision;text-rendering:geometricPrecision"
         fill="#eddeab"
         d="m 760.5,289.5 c 10.784,10.366 19.784,22.199 27,35.5 -12.019,11.346 -24.686,22.012 -38,32 -2,0.667 -4,0.667 -6,0 -18.167,-4.792 -36.501,-8.792 -55,-12 -16.357,-0.194 -32.69,-0.86 -49,-2 -1.158,-1.009 -1.825,-2.342 -2,-4 0.531,-2.817 0.864,-5.65 1,-8.5 19.292,-1.323 37.959,-5.489 56,-12.5 2.005,-5.654 3.505,-11.488 4.5,-17.5 9.127,3.815 18.294,7.482 27.5,11 -0.166,-6.342 0,-12.675 0.5,-19 10.18,5.353 19.68,11.686 28.5,19 2.296,-7.185 3.963,-14.519 5,-22 z"
         id="path2" />
    </g>
    <text
       xml:space="preserve"
       style="font-style:normal;font-variant:normal;font-weight:normal;font-stretch:normal;font-size:466.667px;font-family:Gilroy;-inkscape-font-specification:'Gilroy weight=250';fill:#168347;fill-opacity:1"
       x="1223.0261"
       y="638.1745"
       id="text1"><tspan
         sodipodi:role="line"
         id="tspan1"
         x="1223.0261"
         y="638.1745"
         style="font-style:normal;font-variant:normal;font-weight:800;font-stretch:normal;font-size:466.667px;font-family:Gilroy;-inkscape-font-specification:'Gilroy Ultra-Bold';fill:#168347;fill-opacity:1">CROCO</tspan></text>
  </g>
</svg>
