<svg width="248" height="58" viewBox="0 0 248 58" fill="none" xmlns="http://www.w3.org/2000/svg">
<g clip-path="url(#clip0_2015_103)">
<path fill-rule="evenodd" clip-rule="evenodd" d="M82.4514 0C83.8995 1.39173 85.1081 2.98042 86.0771 4.7662C84.4631 6.28951 82.7621 7.72152 80.9743 9.0625C80.7057 9.15205 80.4371 9.15205 80.1685 9.0625C77.729 8.41913 75.267 7.88209 72.7828 7.45139C70.5863 7.42534 68.393 7.33593 66.2028 7.18287C66.0473 7.0474 65.9578 6.86843 65.9343 6.64583C66.0056 6.26762 66.0503 5.88727 66.0686 5.50463C68.6592 5.327 71.1659 4.76768 73.5885 3.82639C73.8578 3.06729 74.0592 2.28402 74.1928 1.47685C75.4185 1.98905 76.6495 2.48138 77.8857 2.9537C77.8634 2.10223 77.8857 1.25197 77.9528 0.402778C79.3199 1.12147 80.5956 1.97173 81.78 2.9537C82.0883 1.98905 82.3121 1.00439 82.4514 0Z" fill="#168348"/>
<path fill-rule="evenodd" clip-rule="evenodd" d="M89.4033 4.99906C88.9799 5.00888 88.5873 5.15506 88.2257 5.4375C86.0956 7.38869 83.8128 9.13407 81.3771 10.6736C79.8629 11.5055 78.2515 11.774 76.5428 11.4792C76.1138 11.8492 75.6662 12.1848 75.2 12.4861C74.5733 12.1729 73.9467 11.8595 73.32 11.5463C72.4224 12.0174 71.4824 12.3755 70.5 12.6204C69.4398 12.2803 68.3879 11.9222 67.3443 11.5463C66.5858 11.7016 65.8697 11.9702 65.1957 12.3519C64.5122 11.9767 63.8632 11.5517 63.2486 11.0764C63.0247 10.9868 62.801 10.9868 62.5771 11.0764C61.9805 11.3412 61.3762 11.5872 60.7643 11.8148C60.1613 11.4813 59.557 11.1457 58.9514 10.8079C58.7724 10.7855 58.5933 10.7632 58.4143 10.7407C57.6732 10.9318 56.957 11.2003 56.2657 11.5463C55.7052 11.1988 55.1233 10.8856 54.52 10.6065C53.6513 10.996 52.756 11.3093 51.8343 11.5463C50.9424 11.3601 50.0471 11.2482 49.1486 11.2107C47.5919 12.4895 45.8015 13.0265 43.7771 12.8218C43.1089 13.4242 42.3928 13.9612 41.6286 14.4329C40.6632 14.6937 39.6785 14.828 38.6743 14.8357C38.3329 15.4064 37.9748 15.9658 37.6 16.5139C36.7568 16.7407 35.9064 16.942 35.0486 17.1181C34.6385 17.7381 34.2133 18.3422 33.7729 18.9306C33.0785 19.0326 32.3846 19.1444 31.6914 19.2662C31.0565 19.7665 30.3851 20.2139 29.6772 20.6088C27.8815 21.424 26.0909 22.2296 24.3057 23.0255C22.4801 23.313 20.6448 23.4025 18.8 23.294C17.1373 23.0913 15.4811 22.8452 13.8315 22.5556C12.0516 22.8325 10.3059 23.2577 8.59431 23.831C7.49143 24.1283 6.37242 24.2178 5.23717 24.0995C4.19646 23.6772 3.12217 23.4534 2.01432 23.4282C1.35162 23.7781 0.724907 24.1809 0.134319 24.6366C0.0526735 24.8019 0.00795642 24.9808 3.3571e-05 25.1736C0.353205 26.3054 0.800779 27.4019 1.34289 28.463C1.71513 27.9873 1.93898 27.4502 2.01432 26.8519C3.40471 27.121 4.79229 27.4119 6.17717 27.7245C6.52094 28.1234 6.87908 28.5038 7.25146 28.8657C7.4404 28.4333 7.57468 27.9857 7.65431 27.5232C9.52827 27.7684 11.4083 27.9698 13.2943 28.1273C13.6158 29.2112 13.9067 30.3077 14.1672 31.4167C14.5923 30.433 15.0176 29.4483 15.4429 28.463C17.1564 29.1608 18.9021 29.765 20.68 30.2755C23.1515 30.6572 25.6135 31.0824 28.0657 31.5509C28.2567 31.579 28.4357 31.6461 28.6029 31.7523C27.3055 31.8194 26.0074 31.8417 24.7086 31.8194C23.8094 31.8048 22.9141 31.8495 22.0229 31.9537C21.8158 33.0502 21.5248 34.1243 21.15 35.1759C20.9092 35.5512 20.6182 35.8868 20.2772 36.1829C19.0001 36.8884 17.7021 37.5597 16.3829 38.1968C15.7978 38.1733 15.2158 38.1286 14.6372 38.0625L13.8315 39.2708C13.4733 39.3155 13.1153 39.3604 12.7572 39.4051C12.3891 40.1049 12.0982 40.8433 11.8843 41.6204C11.3452 41.0589 10.7856 40.5219 10.2057 40.0093C10.1139 40.8893 10.0243 41.762 9.93717 42.6273C8.45989 43.3675 6.9379 43.9492 5.37146 44.3727C6.32851 43.6398 7.24622 42.8566 8.12431 42.0232C9.14958 39.7935 10.3134 37.6454 11.6157 35.5787C12.164 34.1604 12.0074 32.8849 11.1457 31.7523C8.76781 34.9387 6.2611 38.0267 3.62575 41.0162C3.29836 41.1078 3.00736 41.0406 2.75289 40.8148C2.58355 40.8496 2.44927 40.9391 2.35003 41.0833C1.65658 42.3811 0.895583 43.6343 0.0671764 44.8426C-0.0223921 45.2901 -0.0223921 45.7377 0.0671764 46.1852C0.442773 46.6952 0.868056 47.1651 1.34289 47.5949C3.09733 48.0304 4.84305 47.9857 6.58003 47.4607C8.55107 46.7663 10.4758 45.9607 12.3543 45.044C15.168 44.1282 17.988 43.2331 20.8143 42.3588C22.1345 41.9611 23.4773 41.7374 24.8429 41.6875C22.967 42.6252 21.087 43.565 19.2029 44.5069C20.159 44.8147 21.1437 45.0385 22.1572 45.1782C24.9722 45.5382 27.7922 45.5829 30.6172 45.3125C32.7982 44.8008 34.9915 44.3534 37.1971 43.9699C39.0833 43.948 40.9633 44.06 42.8371 44.3056C43.2838 44.2321 43.7315 44.165 44.18 44.1042C45.1647 43.7461 46.1496 43.3882 47.1343 43.0301C47.8888 42.8557 48.6498 42.811 49.4171 42.8958C48.4324 43.4776 47.4476 44.0595 46.4629 44.6412C45.3166 45.7051 44.7123 47.0252 44.65 48.6019C44.6465 49.9035 44.6242 51.2014 44.5829 52.4954C44.0297 52.7047 43.4926 52.9509 42.9714 53.2338C42.7176 53.3785 42.5833 53.6023 42.5686 53.9051C42.6724 54.5666 42.8291 55.2155 43.0386 55.8519C44.0578 55.1074 45.0649 54.3465 46.06 53.5694C46.1047 53.6813 46.1496 53.7933 46.1943 53.9051C45.7729 55.2724 45.7506 56.6374 46.1271 58C46.8511 57.0523 47.5225 56.0676 48.1414 55.0463C48.6833 55.9046 49.1757 56.7997 49.6186 57.7315C49.7111 57.8465 49.8229 57.936 49.9543 58C50.4585 57.1261 50.9285 56.231 51.3643 55.3148C51.4616 55.2398 51.5735 55.1951 51.7 55.1806C53.072 55.7048 54.4373 56.2419 55.7957 56.7917C55.8853 56.6574 55.8853 56.5232 55.7957 56.3889C54.699 55.203 53.6024 54.0169 52.5057 52.831C53.6653 51.9479 54.762 50.9856 55.7957 49.9444C57.232 48.2318 57.8587 46.2628 57.6757 44.037C56.8446 40.5217 54.7632 38.0826 51.4314 36.7199C50.1247 36.5971 48.8265 36.4181 47.5371 36.1829C46.7941 35.789 46.1227 35.2968 45.5229 34.706C47.3713 34.8423 49.2064 35.1108 51.0286 35.5116C52.3121 35.8174 53.5206 36.3097 54.6543 36.9884C56.2336 38.2541 57.5765 39.7309 58.6828 41.419C60.5709 41.0666 62.4509 40.6415 64.3228 40.1435C64.7193 39.0822 65.1893 38.0528 65.7328 37.0556C66.6312 36.3267 67.6384 35.7896 68.7543 35.4444C68.799 35.3326 68.8438 35.2206 68.8886 35.1088C68.0913 32.5524 67.3527 29.979 66.6728 27.3889C66.4701 25.7382 66.4254 24.0824 66.5386 22.4213C66.7421 20.6442 67.7044 19.5479 69.4257 19.1319C72.3347 18.8183 74.7071 19.8028 76.5428 22.0857C75.3643 21.5651 74.1558 21.0728 72.9171 20.6088C70.4911 19.9532 68.8125 20.7811 67.8814 23.0926C67.7861 24.2255 67.8756 25.3443 68.15 26.4491C68.9733 29.3213 69.8237 32.1854 70.7014 35.0417L71.1043 35.8472C72.138 36.8884 73.2347 37.8506 74.3943 38.7338C72.4842 38.158 70.537 37.6881 68.5528 37.3241C67.3359 37.3782 66.4855 37.9599 66.0014 39.0694C65.7057 40.7135 65.5714 42.3694 65.5986 44.037C66.1027 43.2527 66.6398 42.4918 67.21 41.7546C70.1898 38.7108 70.5031 38.8899 68.15 42.2917C67.7021 43.1854 67.4783 44.1252 67.4786 45.1111C69.0148 43.7038 70.6486 42.4732 72.38 41.419C71.6826 42.6156 71.2574 43.8911 71.1043 45.2454C73.2348 43.7873 75.2491 42.1762 77.1471 40.412C77.5633 39.7911 77.8766 39.1198 78.0871 38.3982C78.4004 37.1451 78.7138 35.8919 79.0271 34.6389C79.2819 33.2937 79.2819 31.9512 79.0271 30.6111C78.5697 29.6965 78.1222 28.8014 77.6843 27.9259C78.0918 28.3784 78.5394 28.7812 79.0271 29.1343C79.441 29.5584 79.7544 30.0506 79.9671 30.6111C80.1336 31.6555 80.3128 32.6849 80.5043 33.6991C81.2263 32.9327 81.8977 32.1272 82.5185 31.2824C84.6149 29.297 86.6739 27.2831 88.6957 25.2407C91.4849 21.6619 92.7382 17.5893 92.4557 13.0232C92.8687 11.7398 93.361 10.4866 93.9328 9.26389C94.0224 8.50305 94.0224 7.74233 93.9328 6.98149C92.6145 6.24427 91.2493 5.59526 89.8371 5.03473C89.6891 5.00771 89.5445 4.99579 89.4033 4.99906ZM19.8743 24.9722C20.947 25.1282 21.9318 25.5087 22.8286 26.1134C21.7806 26.3652 20.7286 26.5666 19.6729 26.7176C19.284 26.278 19.2393 25.7857 19.5386 25.2407C19.6722 25.1648 19.7841 25.0752 19.8743 24.9722Z" fill="#168348"/>
<path fill-rule="evenodd" clip-rule="evenodd" d="M42.8371 9.12969C43.9124 9.1074 44.9866 9.12969 46.06 9.19682C46.7093 9.26959 47.3358 9.42627 47.94 9.66673C47.5895 10.2855 47.1866 10.8673 46.7314 11.4121C45.346 11.5238 43.9583 11.5909 42.5686 11.6135C42.0996 12.2156 41.5849 12.775 41.0243 13.2917C39.0037 13.5189 37.258 14.3245 35.7871 15.7084C36.7708 12.0625 39.1208 9.86959 42.8371 9.12969Z" fill="#168348"/>
</g>
<path d="M119.963 43.06C115.776 43.06 112.296 41.6733 109.523 38.9C106.776 36.1 105.403 32.6333 105.403 28.5C105.403 24.3667 106.776 20.9133 109.523 18.14C112.296 15.34 115.776 13.94 119.963 13.94C122.47 13.94 124.79 14.5267 126.923 15.7C129.056 16.8467 130.736 18.42 131.963 20.42L126.443 23.62C125.83 22.5267 124.95 21.6867 123.803 21.1C122.656 20.4867 121.376 20.18 119.963 20.18C117.483 20.18 115.496 20.94 114.003 22.46C112.536 23.98 111.803 25.9933 111.803 28.5C111.803 31.0067 112.536 33.02 114.003 34.54C115.496 36.06 117.483 36.82 119.963 36.82C121.376 36.82 122.656 36.5133 123.803 35.9C124.976 35.2867 125.856 34.4467 126.443 33.38L131.963 36.58C130.763 38.58 129.096 40.1667 126.963 41.34C124.83 42.4867 122.496 43.06 119.963 43.06ZM149.683 42.5L144.403 33.3H141.363V42.5H134.963V14.5H146.163C148.829 14.5 151.096 15.4333 152.963 17.3C154.829 19.1667 155.763 21.4333 155.763 24.1C155.763 25.8067 155.283 27.3933 154.323 28.86C153.389 30.3 152.149 31.42 150.603 32.22L156.563 42.5H149.683ZM141.363 20.5V27.7H146.163C147.043 27.7 147.789 27.3533 148.403 26.66C149.043 25.9667 149.363 25.1133 149.363 24.1C149.363 23.0867 149.043 22.2333 148.403 21.54C147.789 20.8467 147.043 20.5 146.163 20.5H141.363ZM182.861 38.86C180.035 41.66 176.595 43.06 172.541 43.06C168.488 43.06 165.048 41.66 162.221 38.86C159.395 36.06 157.981 32.6067 157.981 28.5C157.981 24.3933 159.395 20.94 162.221 18.14C165.048 15.34 168.488 13.94 172.541 13.94C176.595 13.94 180.035 15.34 182.861 18.14C185.688 20.94 187.101 24.3933 187.101 28.5C187.101 32.6067 185.688 36.06 182.861 38.86ZM166.701 34.5C168.275 36.0467 170.221 36.82 172.541 36.82C174.861 36.82 176.795 36.0467 178.341 34.5C179.915 32.9533 180.701 30.9533 180.701 28.5C180.701 26.0467 179.915 24.0467 178.341 22.5C176.795 20.9533 174.861 20.18 172.541 20.18C170.221 20.18 168.275 20.9533 166.701 22.5C165.155 24.0467 164.381 26.0467 164.381 28.5C164.381 30.9533 165.155 32.9533 166.701 34.5ZM204.065 43.06C199.878 43.06 196.398 41.6733 193.625 38.9C190.878 36.1 189.505 32.6333 189.505 28.5C189.505 24.3667 190.878 20.9133 193.625 18.14C196.398 15.34 199.878 13.94 204.065 13.94C206.571 13.94 208.891 14.5267 211.025 15.7C213.158 16.8467 214.838 18.42 216.065 20.42L210.545 23.62C209.931 22.5267 209.051 21.6867 207.905 21.1C206.758 20.4867 205.478 20.18 204.065 20.18C201.585 20.18 199.598 20.94 198.105 22.46C196.638 23.98 195.905 25.9933 195.905 28.5C195.905 31.0067 196.638 33.02 198.105 34.54C199.598 36.06 201.585 36.82 204.065 36.82C205.478 36.82 206.758 36.5133 207.905 35.9C209.078 35.2867 209.958 34.4467 210.545 33.38L216.065 36.58C214.865 38.58 213.198 40.1667 211.065 41.34C208.931 42.4867 206.598 43.06 204.065 43.06ZM242.353 38.86C239.527 41.66 236.087 43.06 232.033 43.06C227.98 43.06 224.54 41.66 221.713 38.86C218.887 36.06 217.473 32.6067 217.473 28.5C217.473 24.3933 218.887 20.94 221.713 18.14C224.54 15.34 227.98 13.94 232.033 13.94C236.087 13.94 239.527 15.34 242.353 18.14C245.18 20.94 246.593 24.3933 246.593 28.5C246.593 32.6067 245.18 36.06 242.353 38.86ZM226.193 34.5C227.767 36.0467 229.713 36.82 232.033 36.82C234.353 36.82 236.287 36.0467 237.833 34.5C239.407 32.9533 240.193 30.9533 240.193 28.5C240.193 26.0467 239.407 24.0467 237.833 22.5C236.287 20.9533 234.353 20.18 232.033 20.18C229.713 20.18 227.767 20.9533 226.193 22.5C224.647 24.0467 223.873 26.0467 223.873 28.5C223.873 30.9533 224.647 32.9533 226.193 34.5Z" fill="#168348"/>
<defs>
<clipPath id="clip0_2015_103">
<rect width="94" height="58" fill="white"/>
</clipPath>
</defs>
</svg>
