<svg width="292" height="80" viewBox="0 0 292 80" fill="none" xmlns="http://www.w3.org/2000/svg">
<rect width="292" height="80" rx="20" fill="#707070"/>
<path d="M109.033 39.9644L87.8198 18.7512C85.8672 16.7986 82.7014 16.7986 80.7488 18.7512L59.5356 39.9644C57.5829 41.9171 57.5829 45.0829 59.5356 47.0355L80.7488 68.2487C82.7014 70.2013 85.8672 70.2013 87.8198 68.2487L109.033 47.0355C110.986 45.0829 110.986 41.9171 109.033 39.9644Z" fill="white"/>
<path d="M83.88 29.7843C87.56 29.7843 90.6267 31.171 93.08 33.9443C95.5867 36.7176 96.84 39.971 96.84 43.7043C96.84 44.451 96.44 44.8243 95.64 44.8243H73.32C73.5867 47.7043 74.7067 50.1843 76.68 52.2643C78.6533 54.3443 81.0533 55.3843 83.88 55.3843C87.7733 55.3843 90.84 53.811 93.08 50.6643C93.3467 50.291 93.6667 50.1043 94.04 50.1043C94.7867 50.1043 95.16 50.4776 95.16 51.2243C95.16 51.4376 95.1067 51.6243 95 51.7843C92.76 55.6776 89.0533 57.6243 83.88 57.6243C80.2533 57.6243 77.1867 56.2376 74.68 53.4643C72.2267 50.691 71 47.4376 71 43.7043C71 39.971 72.2267 36.7176 74.68 33.9443C77.1333 31.171 80.2 29.7843 83.88 29.7843ZM73.32 42.5843H94.44C94.1733 39.7043 93.0533 37.2243 91.08 35.1443C89.1067 33.0643 86.7067 32.0243 83.88 32.0243C81.0533 32.0243 78.6533 33.0643 76.68 35.1443C74.7067 37.2243 73.5867 39.7043 73.32 42.5843Z" fill="#4F8EE9"/>
<path d="M125.578 32.792H132.028C132.83 32.792 133.232 33.1933 133.232 33.996C133.232 34.7987 132.83 35.2 132.028 35.2H125.578V60.484C125.578 61.2867 125.176 61.688 124.374 61.688C123.571 61.688 123.17 61.2867 123.17 60.484V35.2H116.978C116.175 35.2 115.774 34.7987 115.774 33.996C115.774 33.1933 116.175 32.792 116.978 32.792H123.17V23.504C123.17 22.7013 123.571 22.3 124.374 22.3C125.176 22.3 125.578 22.7013 125.578 23.504V32.792ZM155.913 32.276C159.295 32.276 162.019 33.5947 164.083 36.232C166.032 38.64 167.007 41.564 167.007 45.004V60.312C167.007 61.1147 166.605 61.516 165.803 61.516C165 61.516 164.599 61.1147 164.599 60.312V45.004C164.599 42.1947 163.853 39.844 162.363 37.952C160.757 35.7733 158.607 34.684 155.913 34.684C152.415 34.684 149.749 36.0313 147.915 38.726C146.252 41.1913 145.535 44.2013 145.765 47.756C145.822 48.5013 145.851 48.8453 145.851 48.788V60.312C145.851 61.1147 145.449 61.516 144.647 61.516C143.844 61.516 143.443 61.1147 143.443 60.312V10.002C143.443 9.19933 143.844 8.798 144.647 8.798C145.449 8.798 145.851 9.19933 145.851 10.002V38.468C148.144 34.34 151.498 32.276 155.913 32.276ZM191.88 32.19C195.836 32.19 199.133 33.6807 201.77 36.662C204.465 39.6433 205.812 43.1407 205.812 47.154C205.812 47.9567 205.382 48.358 204.522 48.358H180.528C180.815 51.454 182.019 54.12 184.14 56.356C186.262 58.592 188.842 59.71 191.88 59.71C196.066 59.71 199.362 58.0187 201.77 54.636C202.057 54.2347 202.401 54.034 202.802 54.034C203.605 54.034 204.006 54.4353 204.006 55.238C204.006 55.4673 203.949 55.668 203.834 55.84C201.426 60.0253 197.442 62.118 191.88 62.118C187.982 62.118 184.685 60.6273 181.99 57.646C179.353 54.6647 178.034 51.1673 178.034 47.154C178.034 43.1407 179.353 39.6433 181.99 36.662C184.628 33.6807 187.924 32.19 191.88 32.19ZM180.528 45.95H203.232C202.946 42.854 201.742 40.188 199.62 37.952C197.499 35.716 194.919 34.598 191.88 34.598C188.842 34.598 186.262 35.716 184.14 37.952C182.019 40.188 180.815 42.854 180.528 45.95ZM229.735 32.792C230.595 32.792 231.025 33.1647 231.025 33.91C231.025 34.6553 230.652 35.0853 229.907 35.2C226.524 35.6587 223.944 37.2067 222.167 39.844C220.504 42.1947 219.673 45.1473 219.673 48.702V60.226C219.673 61.0287 219.272 61.43 218.469 61.43C217.666 61.43 217.265 61.0287 217.265 60.226V33.996C217.265 33.1933 217.666 32.792 218.469 32.792C219.272 32.792 219.673 33.1933 219.673 33.996V39.328C220.762 37.4933 222.167 35.974 223.887 34.77C225.836 33.4513 227.786 32.792 229.735 32.792Z" fill="white"/>
</svg>
