<svg width="182" height="62" viewBox="0 0 182 62" fill="none" xmlns="http://www.w3.org/2000/svg">
<path d="M54.033 31.9644L32.8198 10.7512C30.8672 8.79861 27.7014 8.79861 25.7488 10.7512L4.53556 31.9644C2.58294 33.9171 2.58294 37.0829 4.53556 39.0355L25.7488 60.2487C27.7014 62.2013 30.8672 62.2013 32.8198 60.2487L54.033 39.0355C55.9857 37.0829 55.9857 33.9171 54.033 31.9644Z" fill="white"/>
<path d="M28.88 21.7843C32.56 21.7843 35.6267 23.171 38.08 25.9443C40.5867 28.7176 41.84 31.971 41.84 35.7043C41.84 36.451 41.44 36.8243 40.64 36.8243H18.32C18.5867 39.7043 19.7067 42.1843 21.68 44.2643C23.6533 46.3443 26.0533 47.3843 28.88 47.3843C32.7733 47.3843 35.84 45.811 38.08 42.6643C38.3467 42.291 38.6667 42.1043 39.04 42.1043C39.7867 42.1043 40.16 42.4776 40.16 43.2243C40.16 43.4376 40.1067 43.6243 40 43.7843C37.76 47.6776 34.0533 49.6243 28.88 49.6243C25.2533 49.6243 22.1867 48.2376 19.68 45.4643C17.2267 42.691 16 39.4376 16 35.7043C16 31.971 17.2267 28.7176 19.68 25.9443C22.1333 23.171 25.2 21.7843 28.88 21.7843ZM18.32 34.5843H39.44C39.1733 31.7043 38.0533 29.2243 36.08 27.1443C34.1067 25.0643 31.7067 24.0243 28.88 24.0243C26.0533 24.0243 23.6533 25.0643 21.68 27.1443C19.7067 29.2243 18.5867 31.7043 18.32 34.5843Z" fill="#4F8EE9"/>
<path d="M70.5776 24.792H77.0276C77.8303 24.792 78.2316 25.1933 78.2316 25.996C78.2316 26.7987 77.8303 27.2 77.0276 27.2H70.5776V52.484C70.5776 53.2867 70.1763 53.688 69.3736 53.688C68.571 53.688 68.1696 53.2867 68.1696 52.484V27.2H61.9776C61.175 27.2 60.7736 26.7987 60.7736 25.996C60.7736 25.1933 61.175 24.792 61.9776 24.792H68.1696V15.504C68.1696 14.7013 68.571 14.3 69.3736 14.3C70.1763 14.3 70.5776 14.7013 70.5776 15.504V24.792ZM100.913 24.276C104.295 24.276 107.019 25.5947 109.083 28.232C111.032 30.64 112.007 33.564 112.007 37.004V52.312C112.007 53.1147 111.605 53.516 110.803 53.516C110 53.516 109.599 53.1147 109.599 52.312V37.004C109.599 34.1947 108.853 31.844 107.363 29.952C105.757 27.7733 103.607 26.684 100.913 26.684C97.4155 26.684 94.7495 28.0313 92.9148 30.726C91.2521 33.1913 90.5355 36.2013 90.7648 39.756C90.8221 40.5013 90.8508 40.8453 90.8508 40.788V52.312C90.8508 53.1147 90.4495 53.516 89.6468 53.516C88.8441 53.516 88.4428 53.1147 88.4428 52.312V2.002C88.4428 1.19933 88.8441 0.797995 89.6468 0.797995C90.4495 0.797995 90.8508 1.19933 90.8508 2.002V30.468C93.1441 26.34 96.4981 24.276 100.913 24.276ZM136.88 24.19C140.836 24.19 144.133 25.6807 146.77 28.662C149.465 31.6433 150.812 35.1407 150.812 39.154C150.812 39.9567 150.382 40.358 149.522 40.358H125.528C125.815 43.454 127.019 46.12 129.14 48.356C131.262 50.592 133.842 51.71 136.88 51.71C141.066 51.71 144.362 50.0187 146.77 46.636C147.057 46.2347 147.401 46.034 147.802 46.034C148.605 46.034 149.006 46.4353 149.006 47.238C149.006 47.4673 148.949 47.668 148.834 47.84C146.426 52.0253 142.442 54.118 136.88 54.118C132.982 54.118 129.685 52.6273 126.99 49.646C124.353 46.6647 123.034 43.1673 123.034 39.154C123.034 35.1407 124.353 31.6433 126.99 28.662C129.628 25.6807 132.924 24.19 136.88 24.19ZM125.528 37.95H148.232C147.946 34.854 146.742 32.188 144.62 29.952C142.499 27.716 139.919 26.598 136.88 26.598C133.842 26.598 131.262 27.716 129.14 29.952C127.019 32.188 125.815 34.854 125.528 37.95ZM174.735 24.792C175.595 24.792 176.025 25.1647 176.025 25.91C176.025 26.6553 175.652 27.0853 174.907 27.2C171.524 27.6587 168.944 29.2067 167.167 31.844C165.504 34.1947 164.673 37.1473 164.673 40.702V52.226C164.673 53.0287 164.272 53.43 163.469 53.43C162.666 53.43 162.265 53.0287 162.265 52.226V25.996C162.265 25.1933 162.666 24.792 163.469 24.792C164.272 24.792 164.673 25.1933 164.673 25.996V31.328C165.762 29.4933 167.167 27.974 168.887 26.77C170.836 25.4513 172.786 24.792 174.735 24.792Z" fill="white"/>
</svg>
