<svg width="380" height="95" viewBox="0 0 380 95" fill="none" xmlns="http://www.w3.org/2000/svg">
<rect width="379.339" height="94.56" rx="20" fill="#707070"/>
<path d="M118.033 45.0969L96.8198 23.8837C94.8672 21.9311 91.7014 21.9311 89.7488 23.8837L68.5356 45.0969C66.5829 47.0495 66.5829 50.2153 68.5356 52.1679L89.7488 73.3812C91.7014 75.3338 94.8672 75.3338 96.8198 73.3812L118.033 52.1679C119.986 50.2153 119.986 47.0495 118.033 45.0969Z" fill="white"/>
<path d="M93.3821 34.5481C97.0621 34.5481 100.129 35.9348 102.582 38.7081C105.089 41.4814 106.342 44.7348 106.342 48.4681C106.342 49.2148 105.942 49.5881 105.142 49.5881H82.8221C83.0888 52.4681 84.2088 54.9481 86.1821 57.0281C88.1554 59.1081 90.5554 60.1481 93.3821 60.1481C97.2754 60.1481 100.342 58.5748 102.582 55.4281C102.849 55.0548 103.169 54.8681 103.542 54.8681C104.289 54.8681 104.662 55.2414 104.662 55.9881C104.662 56.2014 104.609 56.3881 104.502 56.5481C102.262 60.4414 98.5554 62.3881 93.3821 62.3881C89.7554 62.3881 86.6888 61.0014 84.1821 58.2281C81.7288 55.4548 80.5021 52.2014 80.5021 48.4681C80.5021 44.7348 81.7288 41.4814 84.1821 38.7081C86.6354 35.9348 89.7021 34.5481 93.3821 34.5481ZM82.8221 47.3481H103.942C103.675 44.4681 102.555 41.9881 100.582 39.9081C98.6088 37.8281 96.2088 36.7881 93.3821 36.7881C90.5554 36.7881 88.1554 37.8281 86.1821 39.9081C84.2088 41.9881 83.0888 44.4681 82.8221 47.3481Z" fill="#4F8EE9"/>
<path d="M134.782 37.32H140.782C141.529 37.32 141.902 37.6933 141.902 38.44C141.902 39.1867 141.529 39.56 140.782 39.56H134.782V63.08C134.782 63.8267 134.409 64.2 133.662 64.2C132.916 64.2 132.542 63.8267 132.542 63.08V39.56H126.782C126.036 39.56 125.662 39.1867 125.662 38.44C125.662 37.6933 126.036 37.32 126.782 37.32H132.542V28.68C132.542 27.9333 132.916 27.56 133.662 27.56C134.409 27.56 134.782 27.9333 134.782 28.68V37.32ZM163.001 36.84C166.148 36.84 168.681 38.0667 170.601 40.52C172.415 42.76 173.321 45.48 173.321 48.68V62.92C173.321 63.6667 172.948 64.04 172.201 64.04C171.455 64.04 171.081 63.6667 171.081 62.92V48.68C171.081 46.0667 170.388 43.88 169.001 42.12C167.508 40.0933 165.508 39.08 163.001 39.08C159.748 39.08 157.268 40.3333 155.561 42.84C154.014 45.1333 153.348 47.9333 153.561 51.24C153.614 51.9333 153.641 52.2533 153.641 52.2V62.92C153.641 63.6667 153.268 64.04 152.521 64.04C151.774 64.04 151.401 63.6667 151.401 62.92V16.12C151.401 15.3733 151.774 15 152.521 15C153.268 15 153.641 15.3733 153.641 16.12V42.6C155.774 38.76 158.894 36.84 163.001 36.84ZM196.46 36.76C200.14 36.76 203.206 38.1467 205.66 40.92C208.166 43.6933 209.42 46.9467 209.42 50.68C209.42 51.4267 209.02 51.8 208.22 51.8H185.9C186.166 54.68 187.286 57.16 189.26 59.24C191.233 61.32 193.633 62.36 196.46 62.36C200.353 62.36 203.42 60.7867 205.66 57.64C205.926 57.2667 206.246 57.08 206.62 57.08C207.366 57.08 207.74 57.4533 207.74 58.2C207.74 58.4133 207.686 58.6 207.58 58.76C205.34 62.6533 201.633 64.6 196.46 64.6C192.833 64.6 189.766 63.2133 187.26 60.44C184.806 57.6667 183.58 54.4133 183.58 50.68C183.58 46.9467 184.806 43.6933 187.26 40.92C189.713 38.1467 192.78 36.76 196.46 36.76ZM185.9 49.56H207.02C206.753 46.68 205.633 44.2 203.66 42.12C201.686 40.04 199.286 39 196.46 39C193.633 39 191.233 40.04 189.26 42.12C187.286 44.2 186.166 46.68 185.9 49.56ZM231.673 37.32C232.473 37.32 232.873 37.6667 232.873 38.36C232.873 39.0533 232.527 39.4533 231.833 39.56C228.687 39.9867 226.287 41.4267 224.633 43.88C223.087 46.0667 222.313 48.8133 222.313 52.12V62.84C222.313 63.5867 221.94 63.96 221.193 63.96C220.447 63.96 220.073 63.5867 220.073 62.84V38.44C220.073 37.6933 220.447 37.32 221.193 37.32C221.94 37.32 222.313 37.6933 222.313 38.44V43.4C223.327 41.6933 224.633 40.28 226.233 39.16C228.047 37.9333 229.86 37.32 231.673 37.32ZM245.351 60.28C246.577 60.28 247.191 60.8667 247.191 62.04C247.191 63.2667 246.577 63.88 245.351 63.88C244.124 63.88 243.511 63.2667 243.511 62.04C243.511 60.8667 244.124 60.28 245.351 60.28ZM271.638 36.76C275.265 36.76 278.358 38.1733 280.918 41C283.318 43.72 284.518 46.9467 284.518 50.68C284.518 54.4133 283.318 57.64 280.918 60.36C278.358 63.1867 275.265 64.6 271.638 64.6C266.678 64.6 262.945 62.28 260.438 57.64V78.2C260.438 78.9467 260.065 79.32 259.318 79.32C258.572 79.32 258.198 78.9467 258.198 78.2V38.36C258.198 37.6133 258.572 37.24 259.318 37.24C260.065 37.24 260.438 37.6133 260.438 38.36V43.8C262.945 39.1067 266.678 36.76 271.638 36.76ZM271.638 62.36C274.678 62.36 277.212 61.1867 279.238 58.84C281.265 56.4933 282.278 53.7733 282.278 50.68C282.278 47.5867 281.265 44.8667 279.238 42.52C277.212 40.1733 274.678 39 271.638 39C268.598 39 266.038 40.1733 263.958 42.52C261.932 44.8667 260.918 47.5867 260.918 50.68C260.918 53.7733 261.932 56.4933 263.958 58.84C266.038 61.1867 268.598 62.36 271.638 62.36ZM313.219 37.24C313.966 37.24 314.339 37.6133 314.339 38.36C314.339 38.4667 309.112 51.96 298.659 78.84C298.499 79.32 298.152 79.56 297.619 79.56C296.872 79.56 296.499 79.1867 296.499 78.44C296.499 78.28 298.419 73.2667 302.259 63.4C302.099 63.24 300.339 59.1067 296.979 51C293.619 42.84 291.939 38.6267 291.939 38.36C291.939 37.6133 292.312 37.24 293.059 37.24C293.539 37.24 293.886 37.4533 294.099 37.88L303.379 60.52L312.179 37.96C312.392 37.48 312.739 37.24 313.219 37.24Z" fill="white"/>
</svg>
