<svg width="256" height="65" viewBox="0 0 256 65" fill="none" xmlns="http://www.w3.org/2000/svg">
<g clip-path="url(#clip0_2010_70)">
<rect x="28.8126" y="8.28809" width="40" height="40" rx="5" transform="rotate(45 28.8126 8.28809)" fill="white"/>
<path d="M28.9104 22.4881C32.5904 22.4881 35.6571 23.8748 38.1104 26.6481C40.6171 29.4214 41.8704 32.6748 41.8704 36.4081C41.8704 37.1548 41.4704 37.5281 40.6704 37.5281H18.3504C18.6171 40.4081 19.7371 42.8881 21.7104 44.9681C23.6837 47.0481 26.0837 48.0881 28.9104 48.0881C32.8037 48.0881 35.8704 46.5148 38.1104 43.3681C38.3771 42.9948 38.6971 42.8081 39.0704 42.8081C39.8171 42.8081 40.1904 43.1814 40.1904 43.9281C40.1904 44.1414 40.1371 44.3281 40.0304 44.4881C37.7904 48.3814 34.0837 50.3281 28.9104 50.3281C25.2837 50.3281 22.2171 48.9414 19.7104 46.1681C17.2571 43.3948 16.0304 40.1414 16.0304 36.4081C16.0304 32.6748 17.2571 29.4214 19.7104 26.6481C22.1637 23.8748 25.2304 22.4881 28.9104 22.4881ZM18.3504 35.2881H39.4704C39.2037 32.4081 38.0837 29.9281 36.1104 27.8481C34.1371 25.7681 31.7371 24.7281 28.9104 24.7281C26.0837 24.7281 23.6837 25.7681 21.7104 27.8481C19.7371 29.9281 18.6171 32.4081 18.3504 35.2881Z" fill="#4F8EE9"/>
<path d="M70.3106 25.26H76.3106C77.0573 25.26 77.4306 25.6333 77.4306 26.38C77.4306 27.1267 77.0573 27.5 76.3106 27.5H70.3106V51.02C70.3106 51.7667 69.9373 52.14 69.1906 52.14C68.444 52.14 68.0706 51.7667 68.0706 51.02V27.5H62.3106C61.564 27.5 61.1906 27.1267 61.1906 26.38C61.1906 25.6333 61.564 25.26 62.3106 25.26H68.0706V16.62C68.0706 15.8733 68.444 15.5 69.1906 15.5C69.9373 15.5 70.3106 15.8733 70.3106 16.62V25.26ZM98.5294 24.78C101.676 24.78 104.209 26.0067 106.129 28.46C107.943 30.7 108.849 33.42 108.849 36.62V50.86C108.849 51.6067 108.476 51.98 107.729 51.98C106.983 51.98 106.609 51.6067 106.609 50.86V36.62C106.609 34.0067 105.916 31.82 104.529 30.06C103.036 28.0333 101.036 27.02 98.5294 27.02C95.2761 27.02 92.7961 28.2733 91.0894 30.78C89.5427 33.0733 88.8761 35.8733 89.0894 39.18C89.1427 39.8733 89.1694 40.1933 89.1694 40.14V50.86C89.1694 51.6067 88.7961 51.98 88.0494 51.98C87.3027 51.98 86.9294 51.6067 86.9294 50.86V4.06C86.9294 3.31333 87.3027 2.94 88.0494 2.94C88.7961 2.94 89.1694 3.31333 89.1694 4.06V30.54C91.3027 26.7 94.4227 24.78 98.5294 24.78ZM131.988 24.7C135.668 24.7 138.734 26.0867 141.188 28.86C143.694 31.6333 144.948 34.8867 144.948 38.62C144.948 39.3667 144.548 39.74 143.748 39.74H121.428C121.694 42.62 122.814 45.1 124.788 47.18C126.761 49.26 129.161 50.3 131.988 50.3C135.881 50.3 138.948 48.7267 141.188 45.58C141.454 45.2067 141.774 45.02 142.148 45.02C142.894 45.02 143.268 45.3933 143.268 46.14C143.268 46.3533 143.214 46.54 143.108 46.7C140.868 50.5933 137.161 52.54 131.988 52.54C128.361 52.54 125.294 51.1533 122.788 48.38C120.334 45.6067 119.108 42.3533 119.108 38.62C119.108 34.8867 120.334 31.6333 122.788 28.86C125.241 26.0867 128.308 24.7 131.988 24.7ZM121.428 37.5H142.548C142.281 34.62 141.161 32.14 139.188 30.06C137.214 27.98 134.814 26.94 131.988 26.94C129.161 26.94 126.761 27.98 124.788 30.06C122.814 32.14 121.694 34.62 121.428 37.5ZM167.201 25.26C168.001 25.26 168.401 25.6067 168.401 26.3C168.401 26.9933 168.055 27.3933 167.361 27.5C164.215 27.9267 161.815 29.3667 160.161 31.82C158.615 34.0067 157.841 36.7533 157.841 40.06V50.78C157.841 51.5267 157.468 51.9 156.721 51.9C155.975 51.9 155.601 51.5267 155.601 50.78V26.38C155.601 25.6333 155.975 25.26 156.721 25.26C157.468 25.26 157.841 25.6333 157.841 26.38V31.34C158.855 29.6333 160.161 28.22 161.761 27.1C163.575 25.8733 165.388 25.26 167.201 25.26ZM180.879 48.22C182.105 48.22 182.719 48.8067 182.719 49.98C182.719 51.2067 182.105 51.82 180.879 51.82C179.652 51.82 179.039 51.2067 179.039 49.98C179.039 48.8067 179.652 48.22 180.879 48.22ZM207.166 24.7C210.793 24.7 213.886 26.1133 216.446 28.94C218.846 31.66 220.046 34.8867 220.046 38.62C220.046 42.3533 218.846 45.58 216.446 48.3C213.886 51.1267 210.793 52.54 207.166 52.54C202.206 52.54 198.473 50.22 195.966 45.58V66.14C195.966 66.8867 195.593 67.26 194.846 67.26C194.1 67.26 193.726 66.8867 193.726 66.14V26.3C193.726 25.5533 194.1 25.18 194.846 25.18C195.593 25.18 195.966 25.5533 195.966 26.3V31.74C198.473 27.0467 202.206 24.7 207.166 24.7ZM207.166 50.3C210.206 50.3 212.74 49.1267 214.766 46.78C216.793 44.4333 217.806 41.7133 217.806 38.62C217.806 35.5267 216.793 32.8067 214.766 30.46C212.74 28.1133 210.206 26.94 207.166 26.94C204.126 26.94 201.566 28.1133 199.486 30.46C197.46 32.8067 196.446 35.5267 196.446 38.62C196.446 41.7133 197.46 44.4333 199.486 46.78C201.566 49.1267 204.126 50.3 207.166 50.3ZM248.747 25.18C249.494 25.18 249.867 25.5533 249.867 26.3C249.867 26.4067 244.64 39.9 234.187 66.78C234.027 67.26 233.68 67.5 233.147 67.5C232.4 67.5 232.027 67.1267 232.027 66.38C232.027 66.22 233.947 61.2067 237.787 51.34C237.627 51.18 235.867 47.0467 232.507 38.94C229.147 30.78 227.467 26.5667 227.467 26.3C227.467 25.5533 227.84 25.18 228.587 25.18C229.067 25.18 229.414 25.3933 229.627 25.82L238.907 48.46L247.707 25.9C247.92 25.42 248.267 25.18 248.747 25.18Z" fill="white"/>
</g>
<defs>
<clipPath id="clip0_2010_70">
<rect width="254.569" height="64.7132" fill="white" transform="translate(0.528351 0.143433)"/>
</clipPath>
</defs>
</svg>
