<svg width="252" height="97" viewBox="0 0 252 97" fill="none" xmlns="http://www.w3.org/2000/svg">
<g clip-path="url(#clip0_2015_113)">
<g clip-path="url(#clip1_2015_113)">
<path fill-rule="evenodd" clip-rule="evenodd" d="M12.1496 60.5276C12.7117 60.5135 13.2486 60.6253 13.7604 60.8631C15.2797 61.6452 16.8456 62.3163 18.4584 62.8766C19.3368 63.3083 20.1421 63.8452 20.8745 64.4874C23.3577 66.9707 25.8409 69.4539 28.3242 71.9372C30.3322 74.3483 32.3903 76.7197 34.4987 79.0515C35.3364 80.0562 36.1417 81.0854 36.9148 82.1388C37.86 83.129 38.8444 84.0686 39.8678 84.9577C41.9459 83.4422 43.6909 81.6076 45.1027 79.4542C46.9819 77.3065 48.8611 75.1588 50.7403 73.0111C53.7157 70.0356 56.691 67.0602 59.6664 64.0847C60.1138 63.7715 60.5613 63.4582 61.0087 63.1451C62.6419 62.4813 64.2526 61.7654 65.8409 60.9974C66.6785 60.6356 67.5286 60.5909 68.3913 60.8631C69.9259 61.7528 71.2906 62.8489 72.4852 64.1518C72.5485 64.3862 72.638 64.6099 72.7537 64.823C75.1251 73.0111 77.4964 81.1992 79.8678 89.3873C80.1129 90.8425 79.5089 91.715 78.0557 92.0048C71.9707 92.0943 65.8856 92.0943 59.8007 92.0048C58.76 91.817 58.2902 91.213 58.3913 90.1927C60.3914 84.3257 62.6286 78.5537 65.1027 72.8768C65.2173 72.3231 65.1725 71.7862 64.9685 71.2661C63.9 70.1842 62.9157 70.2737 62.0154 71.5345C60.4541 74.4783 59.1118 77.521 57.9886 80.6623C56.8252 83.8838 55.662 87.1054 54.4987 90.3269C54.1232 91.3547 53.385 91.9139 52.2839 92.0048C48.7044 92.0943 45.1251 92.0943 41.5456 92.0048C41.0228 91.7657 40.4859 91.5644 39.9349 91.4008C39.3576 91.6155 38.7758 91.8169 38.1899 92.0048C34.6105 92.0943 31.0311 92.0943 27.4517 92.0048C26.6702 91.8271 26.0662 91.402 25.6396 90.7296C23.6933 85.2712 21.635 79.8573 19.4651 74.4876C18.9624 73.4374 18.4255 72.4082 17.8544 71.4003C16.6981 70.1233 15.669 70.2129 14.7671 71.6688C14.6776 72.0267 14.6776 72.3846 14.7671 72.7426C17.3187 78.5631 19.5781 84.4917 21.5456 90.5283C21.5403 91.3396 21.1376 91.8316 20.3376 92.0048C13.9762 92.137 7.62279 92.0923 1.27715 91.8706C0.147623 91.2869 -0.232646 90.3697 0.136213 89.1188C2.32682 80.9809 4.6534 72.8822 7.11608 64.823C7.89232 63.3755 8.98843 62.2346 10.4047 61.4001C10.978 61.0689 11.5596 60.778 12.1496 60.5276Z" fill="#D20000"/>
<path fill-rule="evenodd" clip-rule="evenodd" d="M43.1446 4.80917C42.793 4.81562 42.4389 4.84217 42.0826 4.88861C41.3698 5.10392 40.6538 5.30527 39.9349 5.49265C39.2525 5.33238 38.5813 5.13103 37.9215 4.88861C36.8934 4.8215 35.8643 4.79921 34.8342 4.8215C31.7734 5.88823 29.2008 7.67809 27.1161 10.1908C26.1533 11.6916 24.9901 13.0339 23.6262 14.2177L22.0154 16.6339C19.9711 20.7838 18.9869 25.1689 19.0624 29.7885C19.8232 35.385 21.2549 40.7992 23.3577 46.0305C24.2517 48.1556 25.5269 50.0124 27.1832 51.6011C34.9962 56.9981 43.0501 57.3561 51.3443 52.6749C53.9608 50.7819 55.8176 48.2986 56.9148 45.2251C57.6042 43.1121 58.32 41.0091 59.0624 38.9162C59.3568 37.3362 59.7146 35.7701 60.1362 34.2181C60.8762 31.163 61.0553 28.0757 60.6732 24.9561C60.2168 22.862 59.6352 20.8038 58.9282 18.7815C57.9329 16.2512 56.4115 14.1034 54.3644 12.3385C52.4124 9.13436 49.7054 6.78529 46.2436 5.29131C45.2322 4.95063 44.1992 4.78984 43.1446 4.80917ZM53.5134 25.3536C54.5783 25.3599 55.645 25.4064 56.7134 25.4931C56.6324 26.5197 56.2744 27.4369 55.6396 28.2448C52.6466 28.0855 49.6487 28.0408 46.6463 28.1106C45.6673 28.311 44.6828 28.4675 43.6933 28.5804C42.698 28.6855 42.1164 28.238 41.9483 27.2381C42.1372 26.4079 42.5846 25.7814 43.2906 25.3588C44.344 25.6194 45.4179 25.7984 46.5121 25.8958C48.8371 25.5205 51.1707 25.3398 53.5134 25.3536ZM25.7067 25.3588C28.215 25.4899 30.7207 25.6688 33.2235 25.8958C34.2577 25.8778 35.2644 25.6988 36.2436 25.3588C37.7916 25.8366 38.2167 26.7986 37.5188 28.2448C37.0595 28.4958 36.5673 28.6076 36.0423 28.5804C35.0933 28.4846 34.1537 28.328 33.2235 28.1106C30.2669 28.0557 27.3138 28.1005 24.3644 28.2448C23.7209 27.522 23.4525 26.6943 23.5591 25.7615C24.2886 25.6072 25.0044 25.4729 25.7067 25.3588ZM46.5556 30.4343C47.5844 30.4271 48.5991 30.5476 49.5993 30.7952C49.8073 30.9582 49.9638 31.1595 50.0691 31.3993C50.1779 32.0378 50.133 32.6642 49.9349 33.2785C49.7444 33.4074 49.5431 33.5192 49.3309 33.6141C47.9886 33.7036 46.6463 33.7036 45.304 33.6141C44.3008 33.1953 43.9652 32.457 44.2973 31.3993C44.7302 30.9266 45.2447 30.6135 45.8409 30.4596C46.0799 30.4445 46.3181 30.4359 46.5556 30.4343ZM31.9489 30.4513C32.6874 30.4513 33.4255 30.4764 34.1631 30.5267C34.9125 30.6936 35.4717 31.1187 35.8409 31.8019C35.7109 33.0935 34.9726 33.7423 33.6262 33.7483C32.7761 33.8378 31.9259 33.8378 31.0758 33.7483C29.44 33.2118 29.1267 32.2722 30.1362 30.9294C30.493 30.731 30.851 30.5744 31.2101 30.4596C31.4564 30.4541 31.7026 30.4513 31.9489 30.4513ZM37.653 37.3054C38.025 37.2948 38.3828 37.3619 38.7269 37.5068C39.1883 37.9128 39.6357 38.3379 40.0691 38.782C40.3541 38.4134 40.6226 38.0331 40.8745 37.641C42.4297 37.3585 43.8613 37.6716 45.1698 38.5806C45.7246 39.0009 46.2391 39.4707 46.7134 39.9901C48.42 43.4513 48.8674 47.0756 48.0557 50.8628C47.9111 51.5773 47.5756 52.1814 47.049 52.6749C45.9736 52.9753 45.1906 52.6398 44.7 51.6682C44.8338 49.3449 44.8785 47.0183 44.8342 44.6882C44.3494 42.7084 43.2085 41.2542 41.4114 40.3256C40.9843 39.8761 40.5369 39.451 40.0691 39.0504C38.9542 40.0103 37.7909 40.9052 36.5792 41.7351C35.662 42.7617 35.1475 43.9697 35.0356 45.3593C34.9483 47.11 35.0154 48.855 35.2369 50.5943C35.3575 52.2408 34.5969 52.9344 32.955 52.6749C32.4746 52.3218 32.1391 51.8519 31.9483 51.2655C31.5548 48.7681 31.5101 46.2624 31.8141 43.7485C32.3007 40.2432 34.247 38.0955 37.653 37.3054Z" fill="#D20000"/>
<path fill-rule="evenodd" clip-rule="evenodd" d="M17.1161 44.0169C18.0165 43.8523 18.7548 44.1208 19.3309 44.8223C20.0854 46.5502 20.8907 48.2504 21.747 49.9231C24.0118 53.5272 27.1662 56.0551 31.2101 57.5071C39.7003 60.4801 47.575 59.3167 54.8342 54.0171C57.3501 51.5156 59.2068 48.5848 60.4047 45.225C60.9052 44.3632 61.6435 43.9829 62.6195 44.084C66.397 46.1133 68.1196 49.2677 67.7872 53.5473C67.1597 55.6974 65.8399 57.2858 63.8275 58.3125C61.3658 59.0065 59.1286 60.125 57.1161 61.6683C54.1855 64.599 51.2548 67.5298 48.3242 70.4605C45.5434 73.6656 42.7917 76.8872 40.0691 80.1251C39.1196 79.5113 38.3813 78.7059 37.8544 77.7089C35.6431 75.2533 33.4954 72.7476 31.4114 70.192C28.615 67.3955 25.8185 64.599 23.0221 61.8025C22.3432 61.258 21.6272 60.7657 20.8745 60.326C19.1072 59.4685 17.3176 58.6631 15.5054 57.9098C12.0358 55.5553 11.1633 52.4457 12.8879 48.5807C13.8619 46.6453 15.2713 45.1239 17.1161 44.0169Z" fill="#D20000"/>
</g>
<path d="M88.4515 50.726L88.8815 43.588H90.4295C90.3435 44.104 90.2575 44.276 90.2575 44.706C90.2575 46.856 93.2675 48.662 96.8795 48.662C99.1155 48.662 100.749 47.458 100.749 45.652C100.749 44.362 99.8035 43.416 96.9655 41.954L94.4715 40.664C90.8595 38.772 89.6555 37.31 89.6555 34.644C89.6555 30.516 93.3535 27.42 98.2555 27.42C99.0295 27.42 99.7175 27.334 100.577 27.506L101.523 27.678C102.125 27.678 102.555 27.764 102.899 27.764C104.275 27.764 104.963 27.592 105.307 27.076C104.963 30.43 104.877 31.29 104.877 34.3H103.329C103.415 33.87 103.415 33.784 103.415 33.526C103.415 31.548 101.007 30.258 97.6535 30.258C95.5035 30.258 93.9555 31.29 93.9555 32.752C93.9555 33.87 95.0735 34.644 97.6535 35.934L100.061 37.138C103.587 38.858 105.393 40.922 105.393 43.502C105.393 48.146 101.007 51.93 95.5035 51.93C93.4395 51.93 91.3755 51.586 88.4515 50.726ZM131.339 36.88L114.913 37.224C114.827 38.084 114.827 38.342 114.827 38.858C114.827 44.448 118.009 47.974 122.997 47.974C125.663 47.974 129.533 46.942 131.167 45.738C130.737 47.114 130.479 47.544 129.877 48.404C128.243 50.468 124.459 51.93 120.761 51.93C114.225 51.93 110.011 47.802 110.011 41.352C110.011 33.526 115.515 27.248 122.395 27.248C127.813 27.248 130.823 30.516 131.339 36.88ZM126.179 34.988C125.663 31.806 123.943 30 121.449 30C118.611 30 116.203 31.978 115.085 35.332L126.179 34.988ZM162.137 26.044C167.641 26.044 171.797 27.3913 174.607 30.086C177.416 32.7233 178.821 37.0233 178.821 42.986V73H171.339V43.502C171.339 39.7753 170.507 36.9947 168.845 35.16C167.182 33.3253 164.573 32.408 161.019 32.408C155.916 32.408 152.39 33.8413 150.441 36.708C148.491 39.5747 147.517 43.7027 147.517 49.092V73H139.949V26.904H146.055L147.173 33.182H147.603C148.635 31.5767 149.896 30.258 151.387 29.226C152.935 28.1367 154.626 27.334 156.461 26.818C158.295 26.302 160.187 26.044 162.137 26.044ZM188.897 50.726L189.327 43.588H190.875C190.789 44.104 190.703 44.276 190.703 44.706C190.703 46.856 193.713 48.662 197.325 48.662C199.561 48.662 201.195 47.458 201.195 45.652C201.195 44.362 200.249 43.416 197.411 41.954L194.917 40.664C191.305 38.772 190.101 37.31 190.101 34.644C190.101 30.516 193.799 27.42 198.701 27.42C199.475 27.42 200.163 27.334 201.023 27.506L201.969 27.678C202.571 27.678 203.001 27.764 203.345 27.764C204.721 27.764 205.409 27.592 205.753 27.076C205.409 30.43 205.323 31.29 205.323 34.3H203.775C203.861 33.87 203.861 33.784 203.861 33.526C203.861 31.548 201.453 30.258 198.099 30.258C195.949 30.258 194.401 31.29 194.401 32.752C194.401 33.87 195.519 34.644 198.099 35.934L200.507 37.138C204.033 38.858 205.839 40.922 205.839 43.502C205.839 48.146 201.453 51.93 195.949 51.93C193.885 51.93 191.821 51.586 188.897 50.726ZM231.785 36.88L215.359 37.224C215.273 38.084 215.273 38.342 215.273 38.858C215.273 44.448 218.455 47.974 223.443 47.974C226.109 47.974 229.979 46.942 231.613 45.738C231.183 47.114 230.925 47.544 230.323 48.404C228.689 50.468 224.905 51.93 221.207 51.93C214.671 51.93 210.457 47.802 210.457 41.352C210.457 33.526 215.961 27.248 222.841 27.248C228.259 27.248 231.269 30.516 231.785 36.88ZM226.625 34.988C226.109 31.806 224.389 30 221.895 30C219.057 30 216.649 31.978 215.531 35.332L226.625 34.988ZM251.058 48.748L250.112 51.414C248.478 51.328 247.79 51.328 246.672 51.328C244.78 51.328 242.716 51.414 240.308 51.5C238.244 51.586 237.556 51.672 235.664 51.93L236.61 49.35H237.126C239.448 49.35 239.878 48.662 239.964 44.62L240.308 33.698V33.526C240.308 31.72 239.534 30.946 237.814 30.946C237.212 30.946 236.868 30.946 236.094 31.204L236.782 29.226L238.158 28.968L242.544 27.936L245.898 26.904L246.93 26.56C246.5 27.248 246.414 27.506 246.07 28.366C245.554 30.258 245.382 32.15 245.296 37.396L245.124 47.716V47.888C245.124 48.834 245.21 48.92 245.812 48.92H245.898H248.908L251.058 48.748ZM246.07 20.884C246.07 22.518 244.78 23.808 243.146 23.808C241.512 23.808 240.222 22.518 240.222 20.884C240.222 19.25 241.512 17.874 243.146 17.874C244.78 17.874 246.07 19.25 246.07 20.884Z" fill="#D20000"/>
</g>
<defs>
<clipPath id="clip0_2015_113">
<rect width="252" height="97" fill="white"/>
</clipPath>
<clipPath id="clip1_2015_113">
<rect width="80" height="87.3846" fill="white" transform="translate(0 4.80762)"/>
</clipPath>
</defs>
</svg>
