<svg width="310" height="130" viewBox="0 0 310 130" fill="none" xmlns="http://www.w3.org/2000/svg">
<rect width="310" height="130" fill="#D20000"/>
<mask id="mask0_2212_375" style="mask-type:luminance" maskUnits="userSpaceOnUse" x="29" y="16" width="252" height="97">
<path d="M281 16H29V113H281V16Z" fill="white"/>
</mask>
<g mask="url(#mask0_2212_375)">
<mask id="mask1_2212_375" style="mask-type:luminance" maskUnits="userSpaceOnUse" x="29" y="20" width="80" height="89">
<path d="M109 20.8076H29V108.192H109V20.8076Z" fill="white"/>
</mask>
<g mask="url(#mask1_2212_375)">
<path fill-rule="evenodd" clip-rule="evenodd" d="M41.1496 76.5276C41.7117 76.5135 42.2486 76.6253 42.7604 76.8631C44.2797 77.6452 45.8456 78.3163 47.4584 78.8766C48.3368 79.3083 49.1421 79.8451 49.8745 80.4873C52.3577 82.9706 54.8409 85.4539 57.3242 87.9372C59.3322 90.3483 61.3903 92.7197 63.4987 95.0515C64.3364 96.0562 65.1417 97.0854 65.9148 98.1388C66.86 99.129 67.8444 100.069 68.8678 100.958C70.9459 99.4422 72.6909 97.6076 74.1027 95.4542C75.9819 93.3065 77.8611 91.1588 79.7403 89.0111C82.7157 86.0356 85.691 83.0602 88.6664 80.0847C89.1138 79.7715 89.5613 79.4582 90.0087 79.1451C91.6419 78.4813 93.2526 77.7654 94.8409 76.9974C95.6785 76.6356 96.5286 76.5909 97.3913 76.8631C98.9259 77.7528 100.291 78.8489 101.485 80.1518C101.548 80.3862 101.638 80.6099 101.754 80.823C104.125 89.0111 106.496 97.1992 108.868 105.387C109.113 106.842 108.509 107.715 107.056 108.005C100.971 108.094 94.8856 108.094 88.8007 108.005C87.76 107.817 87.2902 107.213 87.3913 106.193C89.3914 100.326 91.6286 94.5537 94.1027 88.8768C94.2173 88.3231 94.1725 87.7862 93.9685 87.2661C92.9 86.1842 91.9157 86.2737 91.0154 87.5345C89.4541 90.4783 88.1118 93.521 86.9886 96.6623C85.8252 99.8838 84.662 103.105 83.4987 106.327C83.1232 107.355 82.385 107.914 81.2839 108.005C77.7044 108.094 74.1251 108.094 70.5456 108.005C70.0228 107.766 69.4859 107.564 68.9349 107.401C68.3576 107.615 67.7758 107.817 67.1899 108.005C63.6105 108.094 60.0311 108.094 56.4517 108.005C55.6702 107.827 55.0662 107.402 54.6396 106.73C52.6933 101.271 50.635 95.8573 48.4651 90.4876C47.9624 89.4374 47.4255 88.4082 46.8544 87.4003C45.6981 86.1233 44.669 86.2129 43.7671 87.6688C43.6776 88.0267 43.6776 88.3846 43.7671 88.7426C46.3187 94.5631 48.5781 100.492 50.5456 106.528C50.5403 107.34 50.1376 107.832 49.3376 108.005C42.9762 108.137 36.6228 108.092 30.2772 107.871C29.1476 107.287 28.7674 106.37 29.1362 105.119C31.3268 96.9808 33.6534 88.8822 36.1161 80.823C36.8923 79.3755 37.9884 78.2346 39.4047 77.4001C39.978 77.0689 40.5596 76.778 41.1496 76.5276Z" fill="white"/>
<path fill-rule="evenodd" clip-rule="evenodd" d="M72.1446 20.8092C71.793 20.8156 71.4389 20.8422 71.0826 20.8886C70.3698 21.1039 69.6538 21.3053 68.9349 21.4927C68.2525 21.3324 67.5813 21.131 66.9215 20.8886C65.8934 20.8215 64.8643 20.7992 63.8342 20.8215C60.7734 21.8882 58.2008 23.6781 56.1161 26.1908C55.1533 27.6916 53.9901 29.0339 52.6262 30.2177L51.0154 32.6339C48.9711 36.7838 47.9869 41.1689 48.0624 45.7885C48.8232 51.385 50.2549 56.7992 52.3577 62.0305C53.2517 64.1556 54.5269 66.0124 56.1832 67.6011C63.9962 72.9981 72.0501 73.3561 80.3443 68.6749C82.9608 66.7819 84.8176 64.2986 85.9148 61.2251C86.6042 59.1121 87.32 57.0091 88.0624 54.9162C88.3568 53.3362 88.7146 51.7701 89.1362 50.2181C89.8762 47.163 90.0553 44.0757 89.6732 40.9561C89.2168 38.862 88.6352 36.8038 87.9282 34.7815C86.9329 32.2512 85.4115 30.1034 83.3644 28.3385C81.4124 25.1344 78.7054 22.7853 75.2436 21.2913C74.2322 20.9506 73.1992 20.7898 72.1446 20.8092ZM82.5134 41.3536C83.5783 41.3599 84.645 41.4064 85.7134 41.4931C85.6324 42.5197 85.2744 43.4369 84.6396 44.2448C81.6466 44.0855 78.6487 44.0408 75.6463 44.1106C74.6673 44.311 73.6828 44.4675 72.6933 44.5804C71.698 44.6855 71.1164 44.238 70.9483 43.2381C71.1372 42.4079 71.5846 41.7814 72.2906 41.3588C73.344 41.6194 74.4179 41.7984 75.5121 41.8958C77.8371 41.5205 80.1707 41.3398 82.5134 41.3536ZM54.7067 41.3588C57.215 41.4899 59.7207 41.6688 62.2235 41.8958C63.2577 41.8778 64.2644 41.6988 65.2436 41.3588C66.7916 41.8366 67.2167 42.7986 66.5188 44.2448C66.0595 44.4958 65.5673 44.6076 65.0423 44.5804C64.0933 44.4846 63.1537 44.328 62.2235 44.1106C59.2669 44.0557 56.3138 44.1005 53.3644 44.2448C52.7209 43.522 52.4525 42.6943 52.5591 41.7615C53.2886 41.6072 54.0044 41.4729 54.7067 41.3588ZM75.5556 46.4343C76.5844 46.4271 77.5991 46.5476 78.5993 46.7952C78.8073 46.9582 78.9638 47.1595 79.0691 47.3993C79.1779 48.0378 79.133 48.6642 78.9349 49.2785C78.7444 49.4074 78.5431 49.5192 78.3309 49.6141C76.9886 49.7036 75.6463 49.7036 74.304 49.6141C73.3008 49.1953 72.9652 48.457 73.2973 47.3993C73.7302 46.9266 74.2447 46.6135 74.8409 46.4596C75.0799 46.4445 75.3181 46.4359 75.5556 46.4343ZM60.9489 46.4513C61.6874 46.4513 62.4255 46.4764 63.1631 46.5267C63.9125 46.6936 64.4717 47.1187 64.8409 47.8019C64.7109 49.0935 63.9726 49.7423 62.6262 49.7483C61.7761 49.8378 60.9259 49.8378 60.0758 49.7483C58.44 49.2118 58.1267 48.2722 59.1362 46.9294C59.493 46.731 59.851 46.5744 60.2101 46.4596C60.4564 46.4541 60.7026 46.4513 60.9489 46.4513ZM66.653 53.3054C67.025 53.2948 67.3828 53.3619 67.7269 53.5068C68.1883 53.9128 68.6357 54.3379 69.0691 54.782C69.3541 54.4134 69.6226 54.0331 69.8745 53.641C71.4297 53.3585 72.8613 53.6716 74.1698 54.5806C74.7246 55.0009 75.2391 55.4707 75.7134 55.9901C77.42 59.4513 77.8674 63.0756 77.0557 66.8628C76.9111 67.5773 76.5756 68.1814 76.049 68.6749C74.9736 68.9753 74.1906 68.6398 73.7 67.6682C73.8338 65.3449 73.8785 63.0183 73.8342 60.6882C73.3494 58.7084 72.2085 57.2542 70.4114 56.3256C69.9843 55.8761 69.5369 55.451 69.0691 55.0504C67.9542 56.0103 66.7909 56.9052 65.5792 57.7351C64.662 58.7617 64.1475 59.9697 64.0356 61.3593C63.9483 63.11 64.0154 64.855 64.2369 66.5943C64.3575 68.2408 63.5969 68.9344 61.955 68.6749C61.4746 68.3218 61.1391 67.8519 60.9483 67.2655C60.5548 64.7681 60.5101 62.2624 60.8141 59.7485C61.3007 56.2432 63.247 54.0955 66.653 53.3054Z" fill="white"/>
<path fill-rule="evenodd" clip-rule="evenodd" d="M46.116 60.0169C47.0164 59.8523 47.7547 60.1208 48.3308 60.8223C49.0853 62.5502 49.8906 64.2504 50.7469 65.9231C53.0117 69.5272 56.1661 72.0551 60.21 73.5071C68.7002 76.4801 76.5749 75.3167 83.8341 70.0171C86.35 67.5156 88.2067 64.5848 89.4046 61.225C89.9051 60.3632 90.6434 59.9829 91.6194 60.084C95.3969 62.1133 97.1195 65.2677 96.7871 69.5473C96.1596 71.6974 94.8398 73.2858 92.8274 74.3125C90.3657 75.0065 88.1285 76.125 86.116 77.6683C83.1854 80.599 80.2547 83.5298 77.3241 86.4605C74.5433 89.6656 71.7916 92.8872 69.069 96.1251C68.1195 95.5113 67.3812 94.7059 66.8543 93.7089C64.643 91.2533 62.4953 88.7476 60.4113 86.192C57.6149 83.3955 54.8184 80.599 52.022 77.8025C51.3431 77.258 50.6271 76.7657 49.8744 76.326C48.1071 75.4685 46.3175 74.6631 44.5053 73.9098C41.0357 71.5553 40.1632 68.4457 41.8878 64.5807C42.8618 62.6453 44.2712 61.1239 46.116 60.0169Z" fill="white"/>
</g>
<path d="M117.452 66.726L117.882 59.588H119.43C119.344 60.104 119.258 60.276 119.258 60.706C119.258 62.856 122.268 64.662 125.88 64.662C128.116 64.662 129.749 63.458 129.749 61.652C129.749 60.362 128.804 59.416 125.966 57.954L123.472 56.664C119.86 54.772 118.656 53.31 118.656 50.644C118.656 46.516 122.354 43.42 127.256 43.42C128.03 43.42 128.718 43.334 129.577 43.506L130.523 43.678C131.125 43.678 131.555 43.764 131.899 43.764C133.275 43.764 133.963 43.592 134.307 43.076C133.963 46.43 133.877 47.29 133.877 50.3H132.329C132.415 49.87 132.415 49.784 132.415 49.526C132.415 47.548 130.007 46.258 126.654 46.258C124.504 46.258 122.956 47.29 122.956 48.752C122.956 49.87 124.074 50.644 126.654 51.934L129.061 53.138C132.587 54.858 134.393 56.922 134.393 59.502C134.393 64.146 130.007 67.93 124.504 67.93C122.44 67.93 120.376 67.586 117.452 66.726ZM160.339 52.88L143.913 53.224C143.827 54.084 143.827 54.342 143.827 54.858C143.827 60.448 147.009 63.974 151.997 63.974C154.663 63.974 158.533 62.942 160.167 61.738C159.737 63.114 159.479 63.544 158.877 64.404C157.243 66.468 153.459 67.93 149.761 67.93C143.225 67.93 139.011 63.802 139.011 57.352C139.011 49.526 144.515 43.248 151.395 43.248C156.813 43.248 159.823 46.516 160.339 52.88ZM155.179 50.988C154.663 47.806 152.943 46 150.449 46C147.611 46 145.203 47.978 144.085 51.332L155.179 50.988ZM191.137 42.044C196.641 42.044 200.797 43.3913 203.607 46.086C206.416 48.7233 207.821 53.0233 207.821 58.986V89H200.339V59.502C200.339 55.7753 199.507 52.9947 197.845 51.16C196.182 49.3253 193.573 48.408 190.019 48.408C184.916 48.408 181.39 49.8413 179.441 52.708C177.491 55.5747 176.517 59.7027 176.517 65.092V89H168.949V42.904H175.055L176.173 49.182H176.603C177.635 47.5767 178.896 46.258 180.387 45.226C181.935 44.1367 183.626 43.334 185.461 42.818C187.295 42.302 189.187 42.044 191.137 42.044ZM217.897 66.726L218.327 59.588H219.875C219.789 60.104 219.703 60.276 219.703 60.706C219.703 62.856 222.713 64.662 226.325 64.662C228.561 64.662 230.195 63.458 230.195 61.652C230.195 60.362 229.249 59.416 226.411 57.954L223.917 56.664C220.305 54.772 219.101 53.31 219.101 50.644C219.101 46.516 222.799 43.42 227.701 43.42C228.475 43.42 229.163 43.334 230.023 43.506L230.969 43.678C231.571 43.678 232.001 43.764 232.345 43.764C233.721 43.764 234.409 43.592 234.753 43.076C234.409 46.43 234.323 47.29 234.323 50.3H232.775C232.861 49.87 232.861 49.784 232.861 49.526C232.861 47.548 230.453 46.258 227.099 46.258C224.949 46.258 223.401 47.29 223.401 48.752C223.401 49.87 224.519 50.644 227.099 51.934L229.507 53.138C233.033 54.858 234.839 56.922 234.839 59.502C234.839 64.146 230.453 67.93 224.949 67.93C222.885 67.93 220.821 67.586 217.897 66.726ZM260.785 52.88L244.359 53.224C244.273 54.084 244.273 54.342 244.273 54.858C244.273 60.448 247.455 63.974 252.443 63.974C255.109 63.974 258.979 62.942 260.613 61.738C260.183 63.114 259.925 63.544 259.323 64.404C257.689 66.468 253.905 67.93 250.207 67.93C243.671 67.93 239.457 63.802 239.457 57.352C239.457 49.526 244.961 43.248 251.841 43.248C257.259 43.248 260.269 46.516 260.785 52.88ZM255.625 50.988C255.109 47.806 253.389 46 250.895 46C248.057 46 245.649 47.978 244.531 51.332L255.625 50.988ZM280.058 64.748L279.112 67.414C277.478 67.328 276.79 67.328 275.672 67.328C273.78 67.328 271.716 67.414 269.308 67.5C267.244 67.586 266.556 67.672 264.664 67.93L265.61 65.35H266.126C268.448 65.35 268.878 64.662 268.964 60.62L269.308 49.698V49.526C269.308 47.72 268.534 46.946 266.814 46.946C266.212 46.946 265.868 46.946 265.094 47.204L265.782 45.226L267.158 44.968L271.544 43.936L274.898 42.904L275.93 42.56C275.5 43.248 275.414 43.506 275.07 44.366C274.554 46.258 274.382 48.15 274.296 53.396L274.124 63.716V63.888C274.124 64.834 274.21 64.92 274.812 64.92H274.898H277.908L280.058 64.748ZM275.07 36.884C275.07 38.518 273.78 39.808 272.146 39.808C270.512 39.808 269.222 38.518 269.222 36.884C269.222 35.25 270.512 33.874 272.146 33.874C273.78 33.874 275.07 35.25 275.07 36.884Z" fill="white"/>
</g>
</svg>
