<?xml version="1.0" encoding="UTF-8" standalone="no"?>
<svg
   width="253"
   height="97"
   viewBox="0 0 253 97"
   fill="none"
   version="1.1"
   id="svg5"
   sodipodi:docname="bookmark_transparent.svg"
   inkscape:version="1.3.2 (091e20e, 2023-11-25)"
   xmlns:inkscape="http://www.inkscape.org/namespaces/inkscape"
   xmlns:sodipodi="http://sodipodi.sourceforge.net/DTD/sodipodi-0.dtd"
   xmlns="http://www.w3.org/2000/svg"
   xmlns:svg="http://www.w3.org/2000/svg">
  <sodipodi:namedview
     id="namedview5"
     pagecolor="#ffffff"
     bordercolor="#000000"
     borderopacity="0.25"
     inkscape:showpageshadow="2"
     inkscape:pageopacity="0.0"
     inkscape:pagecheckerboard="0"
     inkscape:deskcolor="#d1d1d1"
     inkscape:zoom="1.5679015"
     inkscape:cx="86.421244"
     inkscape:cy="46.877944"
     inkscape:window-width="1472"
     inkscape:window-height="820"
     inkscape:window-x="0"
     inkscape:window-y="37"
     inkscape:window-maximized="0"
     inkscape:current-layer="svg5" />
  <g
     clip-path="url(#clip0_1_1522)"
     id="g4"
     style="fill:#d20000;fill-opacity:1">
    <g
       clip-path="url(#clip1_1_1522)"
       id="g3"
       style="fill:#d20000;fill-opacity:1">
      <path
         fill-rule="evenodd"
         clip-rule="evenodd"
         d="M12.9623 60.5276C13.5243 60.5135 14.0612 60.6253 14.573 60.8631C16.0924 61.6452 17.6583 62.3163 19.271 62.8766C20.1494 63.3083 20.9548 63.8452 21.6871 64.4874C24.1703 66.9707 26.6536 69.4539 29.1368 71.9372C31.1448 74.3483 33.203 76.7197 35.3113 79.0515C36.149 80.0562 36.9544 81.0854 37.7274 82.1388C38.6726 83.129 39.6571 84.0686 40.6804 84.9577C42.7585 83.4422 44.5035 81.6076 45.9153 79.4542C47.7945 77.3065 49.6737 75.1588 51.5529 73.0111C54.5283 70.0356 57.5036 67.0602 60.4791 64.0847C60.9264 63.7715 61.374 63.4582 61.8213 63.1451C63.4545 62.4813 65.0652 61.7654 66.6536 60.9974C67.4911 60.6356 68.3412 60.5909 69.2039 60.8631C70.7385 61.7528 72.1032 62.8489 73.2979 64.1518C73.3611 64.3862 73.4506 64.6099 73.5663 64.823C75.9377 73.0111 78.309 81.1992 80.6804 89.3873C80.9255 90.8425 80.3215 91.715 78.8683 92.0048C72.7834 92.0943 66.6983 92.0943 60.6133 92.0048C59.5726 91.817 59.1028 91.213 59.2039 90.1927C61.204 84.3257 63.4412 78.5537 65.9153 72.8768C66.0299 72.3231 65.9851 71.7862 65.7811 71.2661C64.7126 70.1842 63.7283 70.2737 62.8281 71.5345C61.2667 74.4783 59.9244 77.521 58.8012 80.6623C57.6379 83.8838 56.4746 87.1054 55.3113 90.3269C54.9358 91.3547 54.1976 91.9139 53.0965 92.0048C49.5171 92.0943 45.9377 92.0943 42.3583 92.0048C41.8354 91.7657 41.2985 91.5644 40.7475 91.4008C40.1702 91.6155 39.5885 91.8169 39.0026 92.0048C35.4231 92.0943 31.8438 92.0943 28.2643 92.0048C27.4828 91.8271 26.8788 91.402 26.4522 90.7296C24.5059 85.2712 22.4477 79.8573 20.2777 74.4876C19.775 73.4374 19.2381 72.4082 18.667 71.4003C17.5107 70.1233 16.4816 70.2129 15.5797 71.6688C15.4902 72.0267 15.4902 72.3846 15.5797 72.7426C18.1313 78.5631 20.3907 84.4917 22.3583 90.5283C22.3529 91.3396 21.9502 91.8316 21.1502 92.0048C14.7889 92.137 8.43541 92.0923 2.08978 91.8706C0.960245 91.2869 0.579976 90.3697 0.948836 89.1188C3.13944 80.9809 5.46602 72.8822 7.9287 64.823C8.70494 63.3755 9.80105 62.2346 11.2173 61.4001C11.7906 61.0689 12.3722 60.778 12.9623 60.5276Z"
         fill="white"
         id="path1"
         style="fill:#d20000;fill-opacity:1" />
      <path
         fill-rule="evenodd"
         clip-rule="evenodd"
         d="M43.9572 4.8093C43.6056 4.81574 43.2516 4.84229 42.8952 4.88873C42.1824 5.10404 41.4665 5.30539 40.7475 5.49277C40.0651 5.3325 39.394 5.13115 38.7341 4.88873C37.7061 4.82162 36.6769 4.79933 35.6469 4.82162C32.5861 5.88835 30.0134 7.67821 27.9287 10.1909C26.9659 11.6917 25.8027 13.034 24.4388 14.2178L22.8281 16.634C20.7838 20.784 19.7995 25.169 19.875 29.7886C20.6358 35.3851 22.0675 40.7993 24.1703 46.0306C25.0643 48.1557 26.3395 50.0126 27.9958 51.6012C35.8089 56.9982 43.8627 57.3562 52.1569 52.675C54.7734 50.782 56.6302 48.2987 57.7274 45.2252C58.4168 43.1123 59.1326 41.0093 59.875 38.9163C60.1694 37.3363 60.5273 35.7702 60.9489 34.2182C61.6889 31.1631 61.8679 28.0758 61.4858 24.9563C61.0294 22.8621 60.4478 20.804 59.7408 18.7816C58.7455 16.2513 57.2242 14.1036 55.1771 12.3386C53.225 9.13449 50.518 6.78541 47.0563 5.29143C46.0448 4.95075 45.0118 4.78997 43.9572 4.8093ZM54.326 25.3537C55.3909 25.36 56.4576 25.4065 57.5261 25.4932C57.445 26.5198 57.087 27.437 56.4522 28.2449C53.4592 28.0856 50.4614 28.0409 47.4589 28.1107C46.4799 28.3111 45.4954 28.4676 44.5059 28.5805C43.5106 28.6856 42.929 28.2381 42.761 27.2382C42.9498 26.408 43.3972 25.7815 44.1032 25.359C45.1567 25.6195 46.2305 25.7986 47.3247 25.8959C49.6497 25.5206 51.9834 25.3399 54.326 25.3537ZM26.5193 25.359C29.0277 25.49 31.5333 25.6689 34.0361 25.8959C35.0703 25.8779 36.0771 25.699 37.0563 25.359C38.6042 25.8367 39.0293 26.7987 38.3314 28.2449C37.8721 28.4959 37.3799 28.6078 36.8549 28.5805C35.9059 28.4847 34.9663 28.3282 34.0361 28.1107C31.0795 28.0558 28.1265 28.1006 25.1771 28.2449C24.5336 27.5221 24.2651 26.6944 24.3717 25.7617C25.1012 25.6073 25.8171 25.4731 26.5193 25.359ZM47.3682 30.4344C48.3971 30.4273 49.4117 30.5477 50.412 30.7953C50.6199 30.9583 50.7764 31.1596 50.8818 31.3994C50.9905 32.0379 50.9456 32.6644 50.7475 33.2786C50.5571 33.4075 50.3557 33.5193 50.1435 33.6142C48.8012 33.7037 47.4589 33.7037 46.1167 33.6142C45.1134 33.1954 44.7779 32.4571 45.1099 31.3994C45.5428 30.9267 46.0573 30.6136 46.6536 30.4598C46.8925 30.4446 47.1307 30.436 47.3682 30.4344ZM32.7615 30.4514C33.5 30.4514 34.2381 30.4765 34.9757 30.5269C35.7251 30.6937 36.2843 31.1188 36.6536 31.8021C36.5235 33.0936 35.7852 33.7424 34.4388 33.7484C33.5887 33.838 32.7385 33.838 31.8885 33.7484C30.2526 33.2119 29.9393 32.2723 30.9489 30.9296C31.3056 30.7312 31.6636 30.5745 32.0227 30.4598C32.269 30.4543 32.5152 30.4514 32.7615 30.4514ZM38.4656 37.3056C38.8376 37.2949 39.1954 37.3621 39.5395 37.5069C40.001 37.913 40.4483 38.3381 40.8818 38.7821C41.1667 38.4135 41.4352 38.0332 41.6871 37.6411C43.2423 37.3586 44.674 37.6717 45.9824 38.5808C46.5372 39.001 47.0517 39.4708 47.5261 39.9902C49.2326 43.4515 49.68 47.0757 48.8683 50.8629C48.7238 51.5774 48.3882 52.1815 47.8616 52.675C46.7862 52.9755 46.0032 52.6399 45.5126 51.6683C45.6465 49.345 45.6912 47.0184 45.6469 44.6883C45.162 42.7085 44.0211 41.2544 42.224 40.3258C41.7969 39.8762 41.3495 39.4511 40.8818 39.0506C39.7669 40.0104 38.6035 40.9054 37.3918 41.7352C36.4746 42.7618 35.9601 43.9699 35.8482 45.3594C35.761 47.1101 35.8281 48.8551 36.0495 50.5945C36.1701 52.2409 35.4095 52.9345 33.7677 52.675C33.2873 52.3219 32.9517 51.8521 32.7609 51.2656C32.3674 48.7682 32.3227 46.2625 32.6267 43.7487C33.1133 40.2433 35.0596 38.0956 38.4656 37.3056Z"
         fill="white"
         id="path2"
         style="fill:#d20000;fill-opacity:1" />
      <path
         fill-rule="evenodd"
         clip-rule="evenodd"
         d="M17.9287 44.0171C18.8291 43.8526 19.5674 44.121 20.1435 44.8225C20.898 46.5505 21.7034 48.2506 22.5596 49.9233C24.8244 53.5274 27.9788 56.0554 32.0227 57.5074C40.5129 60.4803 48.3877 59.3169 55.6468 54.0174C58.1627 51.5158 60.0195 48.585 61.2173 45.2252C61.7179 44.3634 62.4561 43.9832 63.4321 44.0842C67.2097 46.1135 68.9322 49.268 68.5999 53.5475C67.9723 55.6977 66.6525 57.286 64.6401 58.3128C62.1784 59.0067 59.9412 60.1253 57.9287 61.6685C54.9981 64.5992 52.0674 67.53 49.1368 70.4607C46.356 73.6659 43.6043 76.8874 40.8817 80.1254C39.9322 79.5115 39.194 78.7061 38.667 77.7092C36.4557 75.2536 34.3081 72.7479 32.224 70.1922C29.4276 67.3958 26.6311 64.5992 23.8348 61.8028C23.1558 61.2582 22.4399 60.766 21.6871 60.3262C19.9199 59.4688 18.1302 58.6634 16.318 57.9101C12.8484 55.5555 11.9759 52.4459 13.7005 48.581C14.6745 46.6455 16.0839 45.1241 17.9287 44.0171Z"
         fill="white"
         id="path3"
         style="fill:#d20000;fill-opacity:1" />
    </g>
    <path
       d="M89.2641 50.726L89.6941 43.588H91.2421C91.1561 44.104 91.0701 44.276 91.0701 44.706C91.0701 46.856 94.0801 48.662 97.6921 48.662C99.9281 48.662 101.562 47.458 101.562 45.652C101.562 44.362 100.616 43.416 97.7781 41.954L95.2841 40.664C91.6721 38.772 90.4681 37.31 90.4681 34.644C90.4681 30.516 94.1661 27.42 99.0681 27.42C99.8421 27.42 100.53 27.334 101.39 27.506L102.336 27.678C102.938 27.678 103.368 27.764 103.712 27.764C105.088 27.764 105.776 27.592 106.12 27.076C105.776 30.43 105.69 31.29 105.69 34.3H104.142C104.228 33.87 104.228 33.784 104.228 33.526C104.228 31.548 101.82 30.258 98.4661 30.258C96.3161 30.258 94.7681 31.29 94.7681 32.752C94.7681 33.87 95.8861 34.644 98.4661 35.934L100.874 37.138C104.4 38.858 106.206 40.922 106.206 43.502C106.206 48.146 101.82 51.93 96.3161 51.93C94.2521 51.93 92.1881 51.586 89.2641 50.726ZM132.152 36.88L115.726 37.224C115.64 38.084 115.64 38.342 115.64 38.858C115.64 44.448 118.822 47.974 123.81 47.974C126.476 47.974 130.346 46.942 131.98 45.738C131.55 47.114 131.292 47.544 130.69 48.404C129.056 50.468 125.272 51.93 121.574 51.93C115.038 51.93 110.824 47.802 110.824 41.352C110.824 33.526 116.328 27.248 123.208 27.248C128.626 27.248 131.636 30.516 132.152 36.88ZM126.992 34.988C126.476 31.806 124.756 30 122.262 30C119.424 30 117.016 31.978 115.898 35.332L126.992 34.988ZM162.949 26.044C168.453 26.044 172.61 27.3913 175.419 30.086C178.229 32.7233 179.633 37.0233 179.633 42.986V73H172.151V43.502C172.151 39.7753 171.32 36.9947 169.657 35.16C167.995 33.3253 165.386 32.408 161.831 32.408C156.729 32.408 153.203 33.8413 151.253 36.708C149.304 39.5747 148.329 43.7027 148.329 49.092V73H140.761V26.904H146.867L147.985 33.182H148.415C149.447 31.5767 150.709 30.258 152.199 29.226C153.747 28.1367 155.439 27.334 157.273 26.818C159.108 26.302 161 26.044 162.949 26.044ZM189.709 50.726L190.139 43.588H191.687C191.601 44.104 191.515 44.276 191.515 44.706C191.515 46.856 194.525 48.662 198.137 48.662C200.373 48.662 202.007 47.458 202.007 45.652C202.007 44.362 201.061 43.416 198.223 41.954L195.729 40.664C192.117 38.772 190.913 37.31 190.913 34.644C190.913 30.516 194.611 27.42 199.513 27.42C200.287 27.42 200.975 27.334 201.835 27.506L202.781 27.678C203.383 27.678 203.813 27.764 204.157 27.764C205.533 27.764 206.221 27.592 206.565 27.076C206.221 30.43 206.135 31.29 206.135 34.3H204.587C204.673 33.87 204.673 33.784 204.673 33.526C204.673 31.548 202.265 30.258 198.911 30.258C196.761 30.258 195.213 31.29 195.213 32.752C195.213 33.87 196.331 34.644 198.911 35.934L201.319 37.138C204.845 38.858 206.651 40.922 206.651 43.502C206.651 48.146 202.265 51.93 196.761 51.93C194.697 51.93 192.633 51.586 189.709 50.726ZM232.597 36.88L216.171 37.224C216.085 38.084 216.085 38.342 216.085 38.858C216.085 44.448 219.267 47.974 224.255 47.974C226.921 47.974 230.791 46.942 232.425 45.738C231.995 47.114 231.737 47.544 231.135 48.404C229.501 50.468 225.717 51.93 222.019 51.93C215.483 51.93 211.269 47.802 211.269 41.352C211.269 33.526 216.773 27.248 223.653 27.248C229.071 27.248 232.081 30.516 232.597 36.88ZM227.437 34.988C226.921 31.806 225.201 30 222.707 30C219.869 30 217.461 31.978 216.343 35.332L227.437 34.988ZM251.871 48.748L250.925 51.414C249.291 51.328 248.603 51.328 247.485 51.328C245.593 51.328 243.529 51.414 241.121 51.5C239.057 51.586 238.369 51.672 236.477 51.93L237.423 49.35H237.939C240.261 49.35 240.691 48.662 240.777 44.62L241.121 33.698V33.526C241.121 31.72 240.347 30.946 238.627 30.946C238.025 30.946 237.681 30.946 236.907 31.204L237.595 29.226L238.971 28.968L243.357 27.936L246.711 26.904L247.743 26.56C247.313 27.248 247.227 27.506 246.883 28.366C246.367 30.258 246.195 32.15 246.109 37.396L245.937 47.716V47.888C245.937 48.834 246.023 48.92 246.625 48.92H246.711H249.721L251.871 48.748ZM246.883 20.884C246.883 22.518 245.593 23.808 243.959 23.808C242.325 23.808 241.035 22.518 241.035 20.884C241.035 19.25 242.325 17.874 243.959 17.874C245.593 17.874 246.883 19.25 246.883 20.884Z"
       fill="white"
       id="path4"
       style="fill:#d20000;fill-opacity:1" />
  </g>
  <defs
     id="defs5">
    <clipPath
       id="clip0_1_1522">
      <rect
         width="252"
         height="97"
         fill="white"
         transform="translate(0.812622)"
         id="rect4" />
    </clipPath>
    <clipPath
       id="clip1_1_1522">
      <rect
         width="80"
         height="87.3846"
         fill="white"
         transform="translate(0.812622 4.80774)"
         id="rect5" />
    </clipPath>
  </defs>
</svg>
